<svg width="72" height="72" viewBox="0 0 72 72" fill="none" xmlns="http://www.w3.org/2000/svg">
<circle cx="35.9883" cy="35.9883" r="35.1085" stroke="url(#paint0_linear_675_3066)" stroke-width="1.75959"/>
<path fill-rule="evenodd" clip-rule="evenodd" d="M47.268 28.5234C49.4046 28.5234 51.1367 26.7913 51.1367 24.6547C51.1367 22.518 49.4046 20.7859 47.268 20.7859C45.1314 20.7859 43.3993 22.518 43.3993 24.6547C43.3993 26.7913 45.1314 28.5234 47.268 28.5234ZM47.268 30.4577C50.473 30.4577 53.0711 27.8596 53.0711 24.6547C53.0711 21.4497 50.473 18.8516 47.268 18.8516C44.0631 18.8516 41.4649 21.4497 41.4649 24.6547C41.4649 27.8596 44.0631 30.4577 47.268 30.4577ZM29.9517 27.6579C28.5279 26.2334 26.2187 26.2326 24.7938 27.6562L24.1128 28.3366C22.8176 27.9685 21.3684 28.2979 20.3485 29.3247C18.8435 30.8399 18.8435 33.2989 20.3485 34.8141L21.1541 35.6252V45.9327H18.2526V47.867H21.1541H21.203C20.576 48.4815 20.1869 49.3378 20.1869 50.285C20.1869 52.1545 21.7025 53.6701 23.5721 53.6701C25.4416 53.6701 26.9572 52.1545 26.9572 50.285C26.9572 49.3378 26.5682 48.4815 25.9412 47.867H45.3825C44.7555 48.4815 44.3665 49.3378 44.3665 50.285C44.3665 52.1545 45.882 53.6701 47.7516 53.6701C49.6212 53.6701 51.1367 52.1545 51.1367 50.285C51.1367 49.3378 50.7477 48.4815 50.1207 47.867H53.0711V45.9327H49.2024V43.0308H49.2664C51.3677 43.0308 53.0711 41.3132 53.0711 39.1943C53.0711 37.0755 51.3677 35.3579 49.2664 35.3579H31.8995C31.8207 35.3579 31.7449 35.3262 31.6891 35.2701L31.3348 34.9134L31.6911 34.5573C33.116 33.1336 33.1168 30.8246 31.6929 29.3999L29.9517 27.6579ZM29.9716 33.5409L30.3239 33.189C30.993 32.5205 30.9933 31.4363 30.3247 30.7674L28.5836 29.0254C27.9149 28.3563 26.8302 28.356 26.161 29.0246L25.822 29.3633L29.9716 33.5409ZM47.268 43.0308V45.9327H23.0885V37.5726L28.1906 42.7092C28.3951 42.9151 28.6723 43.0308 28.9614 43.0308H47.268ZM48.2352 22.7203C48.2352 22.1861 47.8022 21.7531 47.268 21.7531C46.7338 21.7531 46.3008 22.1861 46.3008 22.7203V24.9475L47.4304 26.6419C47.7268 27.0863 48.3273 27.2065 48.7717 26.9102C49.2161 26.6139 49.3362 26.0134 49.04 25.5689L48.2352 24.3618V22.7203Z" fill="white"/>
<path fill-rule="evenodd" clip-rule="evenodd" d="M47.268 28.5234C49.4046 28.5234 51.1367 26.7913 51.1367 24.6547C51.1367 22.518 49.4046 20.7859 47.268 20.7859C45.1314 20.7859 43.3993 22.518 43.3993 24.6547C43.3993 26.7913 45.1314 28.5234 47.268 28.5234ZM47.268 30.4577C50.473 30.4577 53.0711 27.8596 53.0711 24.6547C53.0711 21.4497 50.473 18.8516 47.268 18.8516C44.0631 18.8516 41.4649 21.4497 41.4649 24.6547C41.4649 27.8596 44.0631 30.4577 47.268 30.4577ZM29.9517 27.6579C28.5279 26.2334 26.2187 26.2326 24.7938 27.6562L24.1128 28.3366C22.8176 27.9685 21.3684 28.2979 20.3485 29.3247C18.8435 30.8399 18.8435 33.2989 20.3485 34.8141L21.1541 35.6252V45.9327H18.2526V47.867H21.1541H21.203C20.576 48.4815 20.1869 49.3378 20.1869 50.285C20.1869 52.1545 21.7025 53.6701 23.5721 53.6701C25.4416 53.6701 26.9572 52.1545 26.9572 50.285C26.9572 49.3378 26.5682 48.4815 25.9412 47.867H45.3825C44.7555 48.4815 44.3665 49.3378 44.3665 50.285C44.3665 52.1545 45.882 53.6701 47.7516 53.6701C49.6212 53.6701 51.1367 52.1545 51.1367 50.285C51.1367 49.3378 50.7477 48.4815 50.1207 47.867H53.0711V45.9327H49.2024V43.0308H49.2664C51.3677 43.0308 53.0711 41.3132 53.0711 39.1943C53.0711 37.0755 51.3677 35.3579 49.2664 35.3579H31.8995C31.8207 35.3579 31.7449 35.3262 31.6891 35.2701L31.3348 34.9134L31.6911 34.5573C33.116 33.1336 33.1168 30.8246 31.6929 29.3999L29.9517 27.6579ZM29.9716 33.5409L30.3239 33.189C30.993 32.5205 30.9933 31.4363 30.3247 30.7674L28.5836 29.0254C27.9149 28.3563 26.8302 28.356 26.161 29.0246L25.822 29.3633L29.9716 33.5409ZM47.268 43.0308V45.9327H23.0885V37.5726L28.1906 42.7092C28.3951 42.9151 28.6723 43.0308 28.9614 43.0308H47.268ZM48.2352 22.7203C48.2352 22.1861 47.8022 21.7531 47.268 21.7531C46.7338 21.7531 46.3008 22.1861 46.3008 22.7203V24.9475L47.4304 26.6419C47.7268 27.0863 48.3273 27.2065 48.7717 26.9102C49.2161 26.6139 49.3362 26.0134 49.04 25.5689L48.2352 24.3618V22.7203Z" fill="url(#paint1_linear_675_3066)"/>
<defs>
<linearGradient id="paint0_linear_675_3066" x1="5.70962" y1="39.218" x2="30.7199" y2="67.6128" gradientUnits="userSpaceOnUse">
<stop stop-color="#0BE6F6"/>
<stop offset="1" stop-color="#52D690"/>
</linearGradient>
<linearGradient id="paint1_linear_675_3066" x1="21.0146" y1="37.8232" x2="33.1132" y2="51.5591" gradientUnits="userSpaceOnUse">
<stop stop-color="#0BE6F6"/>
<stop offset="1" stop-color="#52D690"/>
</linearGradient>
</defs>
</svg>
