<svg width="72" height="72" viewBox="0 0 72 72" fill="none" xmlns="http://www.w3.org/2000/svg">
<circle cx="35.9883" cy="35.9883" r="35.1085" stroke="white" stroke-width="1.75959"/>
<circle cx="35.9883" cy="35.9883" r="35.1085" stroke="url(#paint0_linear_704_3036)" stroke-width="1.75959"/>
<path d="M34.6196 17.5177C34.2435 17.5184 33.8673 17.527 33.4915 17.5435C32.6839 17.6871 32.311 18.0407 32.1085 18.4454C31.8854 18.8916 31.8941 19.492 32.1429 20.0259C32.3918 20.5601 32.8484 20.9968 33.4858 21.1598C34.1233 21.3229 35.0009 21.2386 36.1544 20.5013L37.0764 21.9444C35.6271 22.8708 34.2247 23.1151 33.062 22.8176C31.8995 22.5201 31.0369 21.7068 30.5911 20.7503C30.1711 19.8491 30.0939 18.7917 30.4967 17.8528C26.5645 18.4886 23.0039 19.9966 20.269 22.119C19.3702 23.0983 19.2822 24.2364 19.6762 25.0138C20.1188 25.8866 21.1615 26.5237 23.2468 25.864L23.7651 27.4961C21.1464 28.3244 18.988 27.4423 18.1503 25.7896C17.946 25.3868 17.8212 24.9507 17.7722 24.5011C17.3311 25.0245 16.9329 25.5693 16.5811 26.1361L16.5926 26.1416C15.8034 27.9389 15.7854 29.1838 16.1 29.9927C16.4149 30.8018 17.0745 31.3158 18.0901 31.5991C20.1213 32.1653 23.4103 31.4821 25.7264 29.7523C26.7178 29.012 27.6576 27.2164 27.7394 25.8239C27.7801 25.1276 27.6326 24.5774 27.3413 24.2262C27.0499 23.8749 26.5833 23.612 25.6175 23.622L25.6004 21.9099C26.9278 21.8961 28.0055 22.3455 28.6584 23.1325C29.3111 23.9196 29.5068 24.9331 29.4486 25.9241C29.3323 27.9063 28.2946 29.9714 26.7514 31.1238C24.014 33.1684 20.3985 34.0197 17.632 33.2484C16.3503 32.8911 15.2159 32.1136 14.6313 30.9093C13.7566 35.0732 15.0274 38.9411 17.4458 41.6178C17.7619 41.9678 18.0984 42.2986 18.4509 42.6055C18.1986 41.8829 18.083 41.1303 18.1101 40.398C18.1587 39.0855 18.6674 37.8008 19.6879 36.9135C20.5248 36.1855 21.6809 35.7654 23.0636 35.7682C23.1558 35.7682 23.25 35.7698 23.3441 35.7737C23.5595 35.7829 23.7806 35.8015 24.0057 35.8311L23.7821 37.529C22.3539 37.3414 21.4269 37.6685 20.8102 38.2048C20.1935 38.7411 19.8533 39.5438 19.8194 40.461C19.7516 42.2957 20.9253 44.4381 23.456 45.0595L23.4531 45.0767C25.9445 45.5522 28.7248 45.1108 31.516 43.4073C31.5177 43.4062 31.52 43.4057 31.5217 43.4046C32.1026 42.9968 32.4155 42.5975 32.5697 42.2535C32.7516 41.8474 32.7478 41.4937 32.6183 41.1139C32.3595 40.3543 31.4327 39.5735 30.5826 39.3559C29.208 39.004 28.3348 39.4874 27.9255 40.0632C27.5161 40.6386 27.4912 41.2039 28.123 41.695L27.0721 43.0465C25.7722 42.0356 25.6893 40.2531 26.531 39.0695C27.1625 38.1819 28.2705 37.5737 29.6063 37.5348C29.6626 37.5328 29.7189 37.5319 29.7753 37.5321C30.1698 37.5348 30.5807 37.5891 31.0064 37.6979C32.4271 38.0617 33.7405 39.0977 34.2389 40.5612C34.3719 40.9535 34.4302 41.3673 34.4108 41.7811C35.9419 40.9988 37.5565 40.3041 39.2012 39.7824C41.9642 38.5198 43.1621 36.3063 43.1154 34.4425C43.0682 32.5648 41.9071 30.9846 39.2327 30.7201L39.4016 29.0165C42.7611 29.3487 44.7582 31.7513 44.8247 34.3994C44.8634 35.9424 44.2975 37.5479 43.1582 38.9147C44.6308 38.7498 46.0943 38.7777 47.5132 39.0638C47.2244 38.4708 47.0843 37.8288 47.1039 37.1911C47.1659 35.1721 48.8832 33.2886 51.582 33.2599C51.7664 33.2581 51.9507 33.2648 52.1345 33.2799L51.9971 34.9864C49.7131 34.8033 48.8544 36.0021 48.8161 37.2455C48.7783 38.4751 49.599 39.8514 51.9514 40.0341C54.5444 40.0571 56.4033 38.6508 57.3142 36.561C58.5338 33.7632 57.9553 29.5685 54.1217 25.7321C54.0491 25.6594 53.9771 25.5861 53.9041 25.5145C53.8638 25.8562 53.7762 26.1906 53.6437 26.5081C52.9794 28.1014 51.4233 29.1769 49.8069 29.4773C47.5772 29.8917 45.7488 28.9874 44.905 27.6077C44.0611 26.2281 44.2827 24.2771 45.8011 23.25L46.7604 24.6702C45.9437 25.2225 45.9101 25.9703 46.3652 26.7143C46.8203 27.4585 47.8468 28.103 49.4947 27.7968C50.5306 27.6042 51.6842 26.7587 52.063 25.8497C52.2526 25.3953 52.2893 24.9461 52.1003 24.4323C51.9469 24.015 51.6251 23.5377 51.0265 23.035L51.0094 23.0208C48.5065 21.1346 45.8474 19.778 43.1526 18.8833C43.1542 18.8863 43.1567 18.8888 43.1583 18.8919C43.7707 20.0115 43.8162 21.2816 43.439 22.4051C42.6846 24.6522 40.3173 26.4227 37.3888 26.3248C36.7522 26.3037 36.1464 26.6107 35.6309 27.2096C35.1153 27.8086 34.7389 28.686 34.6516 29.6206C34.4771 31.4897 35.2859 33.55 38.4398 34.5683L37.9124 36.1976C34.1481 34.9822 32.7053 32.0244 32.9445 29.4631C33.0642 28.1827 33.5589 26.9928 34.3332 26.0932C35.1076 25.1936 36.2092 24.5719 37.4457 24.6129C39.6484 24.6864 41.3235 23.3225 41.815 21.8584C42.0608 21.1265 42.029 20.3982 41.6547 19.7139C41.2911 19.0495 40.5708 18.3924 39.281 17.9129C37.7417 17.6456 36.182 17.5133 34.6196 17.5177V17.5177ZM43.8936 40.6014C40.0532 40.9138 35.8887 42.7454 32.4149 44.8676C27.2857 48.001 21.8881 47.317 18.0584 44.4755C19.5651 49.867 24.9039 50.9614 30.4735 49.5977C31.0309 49.3884 31.5785 48.9987 32.0455 48.4955C32.6921 47.7985 33.1606 46.8948 33.3081 46.1476L34.9889 46.4798C34.7649 47.6143 34.1571 48.7398 33.3025 49.661C32.4824 50.5447 31.4141 51.2506 30.1786 51.4361C29.5587 52.8169 29.0485 54.1555 28.8414 55.0925C28.5162 56.564 30.1431 57.1288 30.8715 55.645C32.6144 52.0951 35.0743 48.9353 38.147 46.2107C40.5351 44.639 42.5822 42.7012 43.8937 40.6014H43.8936Z" fill="white"/>
<path d="M34.6196 17.5177C34.2435 17.5184 33.8673 17.527 33.4915 17.5435C32.6839 17.6871 32.311 18.0407 32.1085 18.4454C31.8854 18.8916 31.8941 19.492 32.1429 20.0259C32.3918 20.5601 32.8484 20.9968 33.4858 21.1598C34.1233 21.3229 35.0009 21.2386 36.1544 20.5013L37.0764 21.9444C35.6271 22.8708 34.2247 23.1151 33.062 22.8176C31.8995 22.5201 31.0369 21.7068 30.5911 20.7503C30.1711 19.8491 30.0939 18.7917 30.4967 17.8528C26.5645 18.4886 23.0039 19.9966 20.269 22.119C19.3702 23.0983 19.2822 24.2364 19.6762 25.0138C20.1188 25.8866 21.1615 26.5237 23.2468 25.864L23.7651 27.4961C21.1464 28.3244 18.988 27.4423 18.1503 25.7896C17.946 25.3868 17.8212 24.9507 17.7722 24.5011C17.3311 25.0245 16.9329 25.5693 16.5811 26.1361L16.5926 26.1416C15.8034 27.9389 15.7854 29.1838 16.1 29.9927C16.4149 30.8018 17.0745 31.3158 18.0901 31.5991C20.1213 32.1653 23.4103 31.4821 25.7264 29.7523C26.7178 29.012 27.6576 27.2164 27.7394 25.8239C27.7801 25.1276 27.6326 24.5774 27.3413 24.2262C27.0499 23.8749 26.5833 23.612 25.6175 23.622L25.6004 21.9099C26.9278 21.8961 28.0055 22.3455 28.6584 23.1325C29.3111 23.9196 29.5068 24.9331 29.4486 25.9241C29.3323 27.9063 28.2946 29.9714 26.7514 31.1238C24.014 33.1684 20.3985 34.0197 17.632 33.2484C16.3503 32.8911 15.2159 32.1136 14.6313 30.9093C13.7566 35.0732 15.0274 38.9411 17.4458 41.6178C17.7619 41.9678 18.0984 42.2986 18.4509 42.6055C18.1986 41.8829 18.083 41.1303 18.1101 40.398C18.1587 39.0855 18.6674 37.8008 19.6879 36.9135C20.5248 36.1855 21.6809 35.7654 23.0636 35.7682C23.1558 35.7682 23.25 35.7698 23.3441 35.7737C23.5595 35.7829 23.7806 35.8015 24.0057 35.8311L23.7821 37.529C22.3539 37.3414 21.4269 37.6685 20.8102 38.2048C20.1935 38.7411 19.8533 39.5438 19.8194 40.461C19.7516 42.2957 20.9253 44.4381 23.456 45.0595L23.4531 45.0767C25.9445 45.5522 28.7248 45.1108 31.516 43.4073C31.5177 43.4062 31.52 43.4057 31.5217 43.4046C32.1026 42.9968 32.4155 42.5975 32.5697 42.2535C32.7516 41.8474 32.7478 41.4937 32.6183 41.1139C32.3595 40.3543 31.4327 39.5735 30.5826 39.3559C29.208 39.004 28.3348 39.4874 27.9255 40.0632C27.5161 40.6386 27.4912 41.2039 28.123 41.695L27.0721 43.0465C25.7722 42.0356 25.6893 40.2531 26.531 39.0695C27.1625 38.1819 28.2705 37.5737 29.6063 37.5348C29.6626 37.5328 29.7189 37.5319 29.7753 37.5321C30.1698 37.5348 30.5807 37.5891 31.0064 37.6979C32.4271 38.0617 33.7405 39.0977 34.2389 40.5612C34.3719 40.9535 34.4302 41.3673 34.4108 41.7811C35.9419 40.9988 37.5565 40.3041 39.2012 39.7824C41.9642 38.5198 43.1621 36.3063 43.1154 34.4425C43.0682 32.5648 41.9071 30.9846 39.2327 30.7201L39.4016 29.0165C42.7611 29.3487 44.7582 31.7513 44.8247 34.3994C44.8634 35.9424 44.2975 37.5479 43.1582 38.9147C44.6308 38.7498 46.0943 38.7777 47.5132 39.0638C47.2244 38.4708 47.0843 37.8288 47.1039 37.1911C47.1659 35.1721 48.8832 33.2886 51.582 33.2599C51.7664 33.2581 51.9507 33.2648 52.1345 33.2799L51.9971 34.9864C49.7131 34.8033 48.8544 36.0021 48.8161 37.2455C48.7783 38.4751 49.599 39.8514 51.9514 40.0341C54.5444 40.0571 56.4033 38.6508 57.3142 36.561C58.5338 33.7632 57.9553 29.5685 54.1217 25.7321C54.0491 25.6594 53.9771 25.5861 53.9041 25.5145C53.8638 25.8562 53.7762 26.1906 53.6437 26.5081C52.9794 28.1014 51.4233 29.1769 49.8069 29.4773C47.5772 29.8917 45.7488 28.9874 44.905 27.6077C44.0611 26.2281 44.2827 24.2771 45.8011 23.25L46.7604 24.6702C45.9437 25.2225 45.9101 25.9703 46.3652 26.7143C46.8203 27.4585 47.8468 28.103 49.4947 27.7968C50.5306 27.6042 51.6842 26.7587 52.063 25.8497C52.2526 25.3953 52.2893 24.9461 52.1003 24.4323C51.9469 24.015 51.6251 23.5377 51.0265 23.035L51.0094 23.0208C48.5065 21.1346 45.8474 19.778 43.1526 18.8833C43.1542 18.8863 43.1567 18.8888 43.1583 18.8919C43.7707 20.0115 43.8162 21.2816 43.439 22.4051C42.6846 24.6522 40.3173 26.4227 37.3888 26.3248C36.7522 26.3037 36.1464 26.6107 35.6309 27.2096C35.1153 27.8086 34.7389 28.686 34.6516 29.6206C34.4771 31.4897 35.2859 33.55 38.4398 34.5683L37.9124 36.1976C34.1481 34.9822 32.7053 32.0244 32.9445 29.4631C33.0642 28.1827 33.5589 26.9928 34.3332 26.0932C35.1076 25.1936 36.2092 24.5719 37.4457 24.6129C39.6484 24.6864 41.3235 23.3225 41.815 21.8584C42.0608 21.1265 42.029 20.3982 41.6547 19.7139C41.2911 19.0495 40.5708 18.3924 39.281 17.9129C37.7417 17.6456 36.182 17.5133 34.6196 17.5177V17.5177ZM43.8936 40.6014C40.0532 40.9138 35.8887 42.7454 32.4149 44.8676C27.2857 48.001 21.8881 47.317 18.0584 44.4755C19.5651 49.867 24.9039 50.9614 30.4735 49.5977C31.0309 49.3884 31.5785 48.9987 32.0455 48.4955C32.6921 47.7985 33.1606 46.8948 33.3081 46.1476L34.9889 46.4798C34.7649 47.6143 34.1571 48.7398 33.3025 49.661C32.4824 50.5447 31.4141 51.2506 30.1786 51.4361C29.5587 52.8169 29.0485 54.1555 28.8414 55.0925C28.5162 56.564 30.1431 57.1288 30.8715 55.645C32.6144 52.0951 35.0743 48.9353 38.147 46.2107C40.5351 44.639 42.5822 42.7012 43.8937 40.6014H43.8936Z" fill="url(#paint1_linear_704_3036)"/>
<defs>
<linearGradient id="paint0_linear_704_3036" x1="56.2894" y1="12.1385" x2="66.1067" y2="49.8687" gradientUnits="userSpaceOnUse">
<stop stop-color="#23A2E5"/>
<stop offset="1" stop-color="#4933B5"/>
</linearGradient>
<linearGradient id="paint1_linear_704_3036" x1="48.3992" y1="24.0944" x2="53.2248" y2="44.7964" gradientUnits="userSpaceOnUse">
<stop stop-color="#23A2E5"/>
<stop offset="1" stop-color="#4933B5"/>
</linearGradient>
</defs>
</svg>
