<svg width="20" height="21" viewBox="0 0 20 21" fill="none" xmlns="http://www.w3.org/2000/svg">
<path d="M17 2.51953H15V1.51953C15 1.25431 14.8946 0.999961 14.7071 0.812424C14.5196 0.624888 14.2652 0.519531 14 0.519531C13.7348 0.519531 13.4804 0.624888 13.2929 0.812424C13.1054 0.999961 13 1.25431 13 1.51953V2.51953H7V1.51953C7 1.25431 6.89464 0.999961 6.70711 0.812424C6.51957 0.624888 6.26522 0.519531 6 0.519531C5.73478 0.519531 5.48043 0.624888 5.29289 0.812424C5.10536 0.999961 5 1.25431 5 1.51953V2.51953H3C2.20435 2.51953 1.44129 2.8356 0.87868 3.39821C0.316071 3.96082 0 4.72388 0 5.51953V17.5195C0 18.3152 0.316071 19.0782 0.87868 19.6409C1.44129 20.2035 2.20435 20.5195 3 20.5195H17C17.7956 20.5195 18.5587 20.2035 19.1213 19.6409C19.6839 19.0782 20 18.3152 20 17.5195V5.51953C20 4.72388 19.6839 3.96082 19.1213 3.39821C18.5587 2.8356 17.7956 2.51953 17 2.51953ZM18 17.5195C18 17.7847 17.8946 18.0391 17.7071 18.2266C17.5196 18.4142 17.2652 18.5195 17 18.5195H3C2.73478 18.5195 2.48043 18.4142 2.29289 18.2266C2.10536 18.0391 2 17.7847 2 17.5195V10.5195H18V17.5195ZM18 8.51953H2V5.51953C2 5.25431 2.10536 4.99996 2.29289 4.81242C2.48043 4.62489 2.73478 4.51953 3 4.51953H5V5.51953C5 5.78475 5.10536 6.0391 5.29289 6.22664C5.48043 6.41417 5.73478 6.51953 6 6.51953C6.26522 6.51953 6.51957 6.41417 6.70711 6.22664C6.89464 6.0391 7 5.78475 7 5.51953V4.51953H13V5.51953C13 5.78475 13.1054 6.0391 13.2929 6.22664C13.4804 6.41417 13.7348 6.51953 14 6.51953C14.2652 6.51953 14.5196 6.41417 14.7071 6.22664C14.8946 6.0391 15 5.78475 15 5.51953V4.51953H17C17.2652 4.51953 17.5196 4.62489 17.7071 4.81242C17.8946 4.99996 18 5.25431 18 5.51953V8.51953Z" fill="white"/>
</svg>
