<svg width="38" height="38" viewBox="0 0 38 38" fill="none" xmlns="http://www.w3.org/2000/svg">
<rect width="38" height="38" rx="4" fill="#212529"/>
<g clip-path="url(#clip0_306_245)">
<path d="M11.5 12C11.3674 12 11.2402 12.0527 11.1464 12.1464C11.0527 12.2402 11 12.3674 11 12.5C11 12.6326 11.0527 12.7598 11.1464 12.8536C11.2402 12.9473 11.3674 13 11.5 13H12.61L13.011 14.607L14.509 22.592C14.5304 22.7066 14.5913 22.8101 14.6809 22.8846C14.7706 22.9591 14.8834 22.9999 15 23H16C15.4696 23 14.9609 23.2107 14.5858 23.5858C14.2107 23.9609 14 24.4696 14 25C14 25.5304 14.2107 26.0391 14.5858 26.4142C14.9609 26.7893 15.4696 27 16 27C16.5304 27 17.0391 26.7893 17.4142 26.4142C17.7893 26.0391 18 25.5304 18 25C18 24.4696 17.7893 23.9609 17.4142 23.5858C17.0391 23.2107 16.5304 23 16 23H23C22.4696 23 21.9609 23.2107 21.5858 23.5858C21.2107 23.9609 21 24.4696 21 25C21 25.5304 21.2107 26.0391 21.5858 26.4142C21.9609 26.7893 22.4696 27 23 27C23.5304 27 24.0391 26.7893 24.4142 26.4142C24.7893 26.0391 25 25.5304 25 25C25 24.4696 24.7893 23.9609 24.4142 23.5858C24.0391 23.2107 23.5304 23 23 23H24C24.1166 22.9999 24.2294 22.9591 24.3191 22.8846C24.4087 22.8101 24.4696 22.7066 24.491 22.592L25.991 14.592C26.0045 14.5198 26.002 14.4456 25.9835 14.3745C25.9651 14.3035 25.9313 14.2373 25.8844 14.1808C25.8375 14.1243 25.7788 14.0788 25.7124 14.0476C25.6459 14.0163 25.5734 14.0001 25.5 14H13.89L13.485 12.379C13.458 12.2708 13.3956 12.1747 13.3077 12.106C13.2199 12.0374 13.1115 12 13 12H11.5ZM17 25C17 25.2652 16.8946 25.5196 16.7071 25.7071C16.5196 25.8946 16.2652 26 16 26C15.7348 26 15.4804 25.8946 15.2929 25.7071C15.1054 25.5196 15 25.2652 15 25C15 24.7348 15.1054 24.4804 15.2929 24.2929C15.4804 24.1054 15.7348 24 16 24C16.2652 24 16.5196 24.1054 16.7071 24.2929C16.8946 24.4804 17 24.7348 17 25ZM24 25C24 25.2652 23.8946 25.5196 23.7071 25.7071C23.5196 25.8946 23.2652 26 23 26C22.7348 26 22.4804 25.8946 22.2929 25.7071C22.1054 25.5196 22 25.2652 22 25C22 24.7348 22.1054 24.4804 22.2929 24.2929C22.4804 24.1054 22.7348 24 23 24C23.2652 24 23.5196 24.1054 23.7071 24.2929C23.8946 24.4804 24 24.7348 24 25ZM22.354 17.354L19.354 20.354C19.3076 20.4006 19.2524 20.4375 19.1916 20.4627C19.1309 20.4879 19.0658 20.5009 19 20.5009C18.9342 20.5009 18.8691 20.4879 18.8084 20.4627C18.7476 20.4375 18.6924 20.4006 18.646 20.354L17.146 18.854C17.0995 18.8075 17.0626 18.7523 17.0375 18.6916C17.0123 18.6308 16.9994 18.5657 16.9994 18.5C16.9994 18.4343 17.0123 18.3692 17.0375 18.3084C17.0626 18.2477 17.0995 18.1925 17.146 18.146C17.1925 18.0995 17.2477 18.0626 17.3084 18.0375C17.3692 18.0123 17.4343 17.9994 17.5 17.9994C17.5657 17.9994 17.6308 18.0123 17.6916 18.0375C17.7523 18.0626 17.8075 18.0995 17.854 18.146L19 19.293L21.646 16.646C21.6925 16.5995 21.7477 16.5626 21.8084 16.5375C21.8692 16.5123 21.9343 16.4994 22 16.4994C22.0657 16.4994 22.1308 16.5123 22.1916 16.5375C22.2523 16.5626 22.3075 16.5995 22.354 16.646C22.4005 16.6925 22.4374 16.7477 22.4625 16.8084C22.4877 16.8692 22.5006 16.9343 22.5006 17C22.5006 17.0657 22.4877 17.1308 22.4625 17.1916C22.4374 17.2523 22.4005 17.3075 22.354 17.354Z" fill="white"/>
</g>
<defs>
<clipPath id="clip0_306_245">
<rect width="16" height="16" fill="white" transform="translate(11 11)"/>
</clipPath>
</defs>
</svg>
