<svg width="239" height="123" viewBox="0 0 239 123" fill="none" xmlns="http://www.w3.org/2000/svg">
<path d="M21.2072 64.9466C9.53291 46.4142 3.34787 24.9536 3.36846 3.05078" stroke="url(#paint0_linear_675_2998)" stroke-width="2.32124" stroke-miterlimit="10"/>
<path d="M72.8197 109.619C51.5546 100.195 33.5842 84.6408 21.207 64.9473" stroke="url(#paint1_linear_675_2998)" stroke-width="3.48185" stroke-miterlimit="10"/>
<path d="M72.8197 109.619C51.5546 100.195 33.5842 84.6408 21.207 64.9473" stroke="url(#paint2_linear_675_2998)" stroke-width="3.48185" stroke-miterlimit="10"/>
<path d="M167.445 109.33C152.571 115.976 136.471 119.435 120.18 119.485C103.89 119.535 87.7686 116.175 72.8545 109.62" stroke="url(#paint3_linear_675_2998)" stroke-width="6.96371" stroke-miterlimit="10"/>
<path d="M217.514 66.3867C205.285 85.217 187.89 100.126 167.41 109.33" stroke="url(#paint4_linear_675_2998)" stroke-width="5.80309" stroke-miterlimit="10"/>
<path d="M236.223 3.05078C236.26 25.53 229.76 47.5349 217.514 66.3857" stroke="url(#paint5_linear_675_2998)" stroke-width="1.16062" stroke-miterlimit="10"/>
<path d="M238.243 3.05223C238.24 3.45803 238.118 3.85406 237.891 4.19035C237.664 4.52665 237.342 4.78815 236.966 4.94185C236.591 5.09556 236.178 5.13459 235.78 5.05402C235.383 4.97345 235.018 4.77688 234.732 4.48912C234.445 4.20137 234.251 3.83532 234.173 3.43715C234.094 3.03897 234.136 2.62652 234.292 2.25182C234.447 1.87713 234.711 1.55697 235.048 1.33175C235.386 1.10653 235.783 0.986335 236.188 0.986328C236.459 0.986324 236.727 1.03984 236.977 1.1438C237.227 1.24777 237.454 1.40012 237.645 1.59211C237.836 1.7841 237.987 2.01194 238.09 2.26252C238.192 2.5131 238.244 2.78148 238.243 3.05223V3.05223Z" fill="white" stroke="url(#paint6_linear_675_2998)" stroke-width="1.16062" stroke-miterlimit="10"/>
<path d="M3.30817 0.580331L3.31038 0.580331C3.63429 0.580329 3.95501 0.64428 4.25415 0.768519C4.55328 0.892755 4.82493 1.07484 5.05354 1.30431C5.28215 1.5338 5.46321 1.80616 5.5863 2.10575C5.7094 2.40535 5.77212 2.72631 5.77088 3.05023L6.35119 3.05244L5.77088 3.05244C5.77088 3.54178 5.62565 4.0201 5.35359 4.42684C5.08153 4.83358 4.69488 5.15044 4.24261 5.33727C3.79034 5.5241 3.29281 5.5725 2.81301 5.47635C2.33322 5.3802 1.89275 5.14381 1.54739 4.79714C1.20204 4.45046 0.96733 4.00909 0.873007 3.52894C0.778685 3.04878 0.828988 2.55143 1.01754 2.09987C1.20609 1.64832 1.52441 1.26288 1.93218 0.992373C2.33995 0.721868 2.81883 0.578466 3.30817 0.580331Z" fill="white" stroke="url(#paint7_linear_675_2998)" stroke-width="1.16062"/>
<path d="M221.692 66.3972C221.692 67.219 221.449 68.0223 220.992 68.7056C220.536 69.3889 219.887 69.9214 219.127 70.2359C218.368 70.5504 217.533 70.6327 216.727 70.4724C215.921 70.3121 215.18 69.9163 214.599 69.3352C214.018 68.7541 213.622 68.0138 213.462 67.2078C213.302 66.4018 213.384 65.5664 213.699 64.8071C214.013 64.0479 214.546 63.399 215.229 62.9424C215.912 62.4859 216.716 62.2422 217.537 62.2422C218.639 62.2422 219.696 62.68 220.475 63.4592C221.255 64.2384 221.692 65.2952 221.692 66.3972V66.3972Z" fill="white" stroke="url(#paint8_linear_675_2998)" stroke-width="1.16062" stroke-miterlimit="10"/>
<path d="M25.6873 66.9916C25.6873 67.6803 25.4831 68.3535 25.1005 68.926C24.718 69.4986 24.1742 69.9449 23.5379 70.2084C22.9017 70.472 22.2016 70.5409 21.5262 70.4066C20.8508 70.2722 20.2304 69.9406 19.7434 69.4537C19.2565 68.9667 18.9249 68.3463 18.7905 67.6709C18.6562 66.9955 18.7251 66.2954 18.9887 65.6592C19.2522 65.0229 19.6985 64.4792 20.2711 64.0966C20.8437 63.714 21.5168 63.5098 22.2055 63.5098C23.1289 63.5098 24.0146 63.8766 24.6675 64.5296C25.3205 65.1826 25.6873 66.0682 25.6873 66.9916V66.9916Z" fill="white" stroke="url(#paint9_linear_675_2998)" stroke-width="1.74093" stroke-miterlimit="10"/>
<path d="M172.818 109.34C172.818 110.375 172.511 111.387 171.936 112.248C171.361 113.109 170.544 113.78 169.587 114.176C168.631 114.572 167.578 114.676 166.563 114.474C165.547 114.272 164.615 113.773 163.883 113.041C163.151 112.309 162.652 111.376 162.45 110.361C162.248 109.346 162.352 108.293 162.748 107.337C163.144 106.38 163.815 105.563 164.676 104.988C165.537 104.412 166.549 104.105 167.584 104.105C168.272 104.104 168.953 104.238 169.589 104.501C170.225 104.763 170.802 105.149 171.289 105.635C171.775 106.122 172.161 106.699 172.423 107.335C172.686 107.971 172.82 108.652 172.818 109.34Z" fill="white" stroke="url(#paint10_linear_675_2998)" stroke-width="2.32124" stroke-miterlimit="10"/>
<path d="M77.1373 109.342C77.1373 110.182 76.8882 111.003 76.4214 111.702C75.9547 112.4 75.2912 112.945 74.5151 113.266C73.7389 113.588 72.8847 113.672 72.0607 113.508C71.2367 113.344 70.4798 112.939 69.8858 112.345C69.2917 111.751 68.8871 110.994 68.7232 110.17C68.5593 109.346 68.6434 108.492 68.965 107.716C69.2865 106.94 69.8309 106.276 70.5295 105.81C71.228 105.343 72.0493 105.094 72.8895 105.094C74.0161 105.094 75.0965 105.541 75.8932 106.338C76.6898 107.135 77.1373 108.215 77.1373 109.342V109.342Z" fill="white" stroke="url(#paint11_linear_675_2998)" stroke-width="1.8802" stroke-miterlimit="10"/>
<defs>
<linearGradient id="paint0_linear_675_2998" x1="17.3192" y1="13.4892" x2="34.5503" y2="32.5751" gradientUnits="userSpaceOnUse">
<stop stop-color="#23A2E5"/>
<stop offset="1" stop-color="#4933B5"/>
</linearGradient>
<linearGradient id="paint1_linear_675_2998" x1="33.493" y1="69.6024" x2="64.7124" y2="76.3496" gradientUnits="userSpaceOnUse">
<stop stop-color="#F7931D"/>
<stop offset="1" stop-color="#EC1B25"/>
</linearGradient>
<linearGradient id="paint2_linear_675_2998" x1="25.3013" y1="89.2879" x2="40.3902" y2="109.08" gradientUnits="userSpaceOnUse">
<stop stop-color="#0BE6F6"/>
<stop offset="1" stop-color="#52D690"/>
</linearGradient>
<linearGradient id="paint3_linear_675_2998" x1="95.371" y1="110.388" x2="110.211" y2="136.244" gradientUnits="userSpaceOnUse">
<stop stop-color="#F7931D"/>
<stop offset="1" stop-color="#EC1B25"/>
</linearGradient>
<linearGradient id="paint4_linear_675_2998" x1="189.254" y1="104.614" x2="214.65" y2="93.1023" gradientUnits="userSpaceOnUse">
<stop stop-color="#F8C429"/>
<stop offset="1" stop-color="#EE81E6"/>
</linearGradient>
<linearGradient id="paint5_linear_675_2998" x1="222.214" y1="9.03639" x2="204.561" y2="24.2718" gradientUnits="userSpaceOnUse">
<stop stop-color="#29CC93"/>
<stop offset="1" stop-color="#A0CC48"/>
</linearGradient>
<linearGradient id="paint6_linear_675_2998" x1="235.166" y1="1.37462" x2="234.457" y2="3.44702" gradientUnits="userSpaceOnUse">
<stop stop-color="#29CC93"/>
<stop offset="1" stop-color="#A0CC48"/>
</linearGradient>
<linearGradient id="paint7_linear_675_2998" x1="5.02066" y1="1.02956" x2="5.85333" y2="4.22972" gradientUnits="userSpaceOnUse">
<stop stop-color="#23A2E5"/>
<stop offset="1" stop-color="#4933B5"/>
</linearGradient>
<linearGradient id="paint8_linear_675_2998" x1="217.005" y1="69.6397" x2="221.417" y2="67.9257" gradientUnits="userSpaceOnUse">
<stop stop-color="#F8C429"/>
<stop offset="1" stop-color="#EE81E6"/>
</linearGradient>
<linearGradient id="paint9_linear_675_2998" x1="24.1696" y1="64.6842" x2="25.1194" y2="68.3345" gradientUnits="userSpaceOnUse">
<stop stop-color="#23A2E5"/>
<stop offset="1" stop-color="#4933B5"/>
</linearGradient>
<linearGradient id="paint10_linear_675_2998" x1="164.842" y1="105.196" x2="171.246" y2="106.394" gradientUnits="userSpaceOnUse">
<stop stop-color="#F7931D"/>
<stop offset="1" stop-color="#EC1B25"/>
</linearGradient>
<linearGradient id="paint11_linear_675_2998" x1="69.3155" y1="109.723" x2="72.2676" y2="113.074" gradientUnits="userSpaceOnUse">
<stop stop-color="#0BE6F6"/>
<stop offset="1" stop-color="#52D690"/>
</linearGradient>
</defs>
</svg>
