<svg width="514" height="499" viewBox="0 0 514 499" fill="none" xmlns="http://www.w3.org/2000/svg">
<g clip-path="url(#clip0_32_190)">
<path d="M229.858 38.7391C229.341 38.8328 228.822 38.9316 228.308 39.0324C228.824 38.909 229.338 38.8082 229.858 38.7391Z" fill="url(#paint0_linear_32_190)"/>
<path d="M224.662 36.84C237.035 35.1021 246.955 47.2264 242.624 59.0766C241.324 62.6328 238.94 65.4754 235.982 67.3746C235.404 67.7459 235.115 67.9315 234.3 68.251C233.485 68.5705 232.84 68.6853 231.552 68.9148C172.307 79.4699 122.195 120.446 100.999 178.434C68.6209 267.017 114.185 365.079 202.768 397.457C291.033 429.72 388.699 384.594 421.433 296.636C421.553 296.209 421.681 295.779 421.835 295.358C424.993 286.718 434.554 282.28 443.188 285.436C451.828 288.594 456.266 298.155 453.11 306.789C453.018 307.039 452.847 307.499 452.79 307.648C452.781 307.673 452.776 307.686 452.772 307.697C452.768 307.708 452.764 307.72 452.754 307.746C413.917 413.047 297.235 467.146 191.743 428.586C86.0523 389.955 31.6907 272.959 70.3224 167.268C95.6787 97.8975 155.316 49.7141 224.662 36.84Z" fill="url(#paint1_linear_32_190)"/>
<path d="M224.663 36.8402C228.593 36.3037 232.688 37.2472 235.957 39.4548C247.023 46.833 245.345 63.057 233.789 68.2796L233.857 68.2571C219.735 70.5275 204.913 74.8742 190.431 81.5772C185.841 83.7099 181.359 86.0644 176.984 88.6057C181.403 86.1514 185.935 83.9034 190.551 81.8449C213.345 71.6076 234.008 68.7601 234.008 68.7601C246.11 63.2365 247.334 46.4342 236.081 39.2589C232.73 37.0856 228.586 36.2248 224.663 36.8402Z" fill="#A6E2BE"/>
<g filter="url(#filter0_dd_32_190)">
<path d="M189.273 82.2614C193.917 80.0953 198.327 80.0171 202.436 81.5191C216.136 86.5266 217.146 105.417 204.344 112.004C171.696 126.92 145.311 154.248 132.29 189.872C106.225 261.18 142.903 340.116 214.211 366.181C285.325 392.168 364.02 355.762 390.3 284.832C390.392 284.531 390.519 284.247 390.628 283.951C393.785 275.312 403.312 270.855 411.951 274.013C420.591 277.171 425.029 286.732 421.873 295.366C421.831 295.48 421.779 295.637 421.73 295.788C421.626 296.11 421.574 296.27 421.542 296.362C421.51 296.453 421.475 296.548 421.404 296.738C388.637 384.631 291.007 429.705 202.775 397.454C114.192 365.075 68.628 267.014 101.007 178.431C117.014 134.636 149.412 100.848 189.273 82.2614Z" fill="url(#paint2_linear_32_190)"/>
</g>
<g filter="url(#filter1_dd_32_190)">
<path d="M287.064 101.999C287.769 102.133 288.472 102.272 289.178 102.418C289.661 102.547 290.143 102.694 290.621 102.869C299.266 106.029 303.713 115.599 300.553 124.243C297.714 132.01 289.7 136.389 281.828 134.902C281.741 134.882 281.645 134.87 281.558 134.85C232.065 125.022 181.425 152.425 163.561 201.296C143.811 255.331 171.601 315.141 225.636 334.892C279.389 354.54 338.859 327.132 358.915 273.647C358.963 273.518 358.987 273.454 359.005 273.409C359.022 273.364 359.051 273.292 359.109 273.147C359.185 272.957 359.287 272.699 359.349 272.53C362.507 263.89 372.138 259.454 380.777 262.612C389.417 265.77 393.796 275.315 390.64 283.95C390.429 284.526 390.243 285.1 389.981 285.64C363.398 356.03 285.044 392.066 214.203 366.172C142.894 340.107 106.217 261.171 132.281 189.863C155.753 125.68 222.051 89.5659 287.064 101.999Z" fill="url(#paint3_linear_32_190)"/>
</g>
<g filter="url(#filter2_dd_32_190)">
<path d="M194.538 157.183C195.226 156.639 201.817 150.321 211.636 153.715C222.847 157.813 227.424 173.084 215.839 182.866C206.555 190.609 199.275 200.634 194.854 212.728C181.419 249.484 200.326 290.175 237.082 303.61C273.152 316.795 314.255 298.921 328.089 261.074C331.247 252.435 340.807 247.997 349.442 251.153C357.863 254.231 362.275 263.381 359.606 271.794C359.435 272.326 358.357 275.147 358.005 276.014C337.102 327.932 278.598 354.244 225.643 334.889C171.614 315.14 143.818 255.328 163.569 201.293C170.083 183.486 180.956 168.532 194.538 157.183ZM196.729 179.209C196.729 179.209 196.728 179.209 196.728 179.209C196.723 179.211 196.724 179.211 196.729 179.209Z" fill="url(#paint4_linear_32_190)"/>
</g>
</g>
<defs>
<filter id="filter0_dd_32_190" x="67.1017" y="59.3655" width="381.616" height="374.342" filterUnits="userSpaceOnUse" color-interpolation-filters="sRGB">
<feFlood flood-opacity="0" result="BackgroundImageFix"/>
<feColorMatrix in="SourceAlpha" type="matrix" values="0 0 0 0 0 0 0 0 0 0 0 0 0 0 0 0 0 0 127 0" result="hardAlpha"/>
<feOffset dx="4.69598" dy="4.69598"/>
<feGaussianBlur stdDeviation="10.5659"/>
<feColorMatrix type="matrix" values="0 0 0 0 0 0 0 0 0 0 0 0 0 0 0 0 0 0 0.5 0"/>
<feBlend mode="normal" in2="BackgroundImageFix" result="effect1_dropShadow_32_190"/>
<feColorMatrix in="SourceAlpha" type="matrix" values="0 0 0 0 0 0 0 0 0 0 0 0 0 0 0 0 0 0 127 0" result="hardAlpha"/>
<feOffset dx="-4.69598" dy="-2.34799"/>
<feGaussianBlur stdDeviation="9.39196"/>
<feColorMatrix type="matrix" values="0 0 0 0 0.763833 0 0 0 0 0.783333 0 0 0 0 0.802833 0 0 0 0.08 0"/>
<feBlend mode="normal" in2="effect1_dropShadow_32_190" result="effect2_dropShadow_32_190"/>
<feBlend mode="normal" in="SourceGraphic" in2="effect2_dropShadow_32_190" result="shape"/>
</filter>
<filter id="filter1_dd_32_190" x="100.409" y="78.4339" width="317.082" height="321.957" filterUnits="userSpaceOnUse" color-interpolation-filters="sRGB">
<feFlood flood-opacity="0" result="BackgroundImageFix"/>
<feColorMatrix in="SourceAlpha" type="matrix" values="0 0 0 0 0 0 0 0 0 0 0 0 0 0 0 0 0 0 127 0" result="hardAlpha"/>
<feOffset dx="4.69598" dy="4.69598"/>
<feGaussianBlur stdDeviation="10.5659"/>
<feColorMatrix type="matrix" values="0 0 0 0 0 0 0 0 0 0 0 0 0 0 0 0 0 0 0.5 0"/>
<feBlend mode="normal" in2="BackgroundImageFix" result="effect1_dropShadow_32_190"/>
<feColorMatrix in="SourceAlpha" type="matrix" values="0 0 0 0 0 0 0 0 0 0 0 0 0 0 0 0 0 0 127 0" result="hardAlpha"/>
<feOffset dx="-4.69598" dy="-2.34799"/>
<feGaussianBlur stdDeviation="9.39196"/>
<feColorMatrix type="matrix" values="0 0 0 0 0.763833 0 0 0 0 0.783333 0 0 0 0 0.802833 0 0 0 0.08 0"/>
<feBlend mode="normal" in2="effect1_dropShadow_32_190" result="effect2_dropShadow_32_190"/>
<feBlend mode="normal" in="SourceGraphic" in2="effect2_dropShadow_32_190" result="shape"/>
</filter>
<filter id="filter2_dd_32_190" x="133.73" y="131.586" width="252.481" height="235.488" filterUnits="userSpaceOnUse" color-interpolation-filters="sRGB">
<feFlood flood-opacity="0" result="BackgroundImageFix"/>
<feColorMatrix in="SourceAlpha" type="matrix" values="0 0 0 0 0 0 0 0 0 0 0 0 0 0 0 0 0 0 127 0" result="hardAlpha"/>
<feOffset dx="4.69598" dy="4.69598"/>
<feGaussianBlur stdDeviation="10.5659"/>
<feColorMatrix type="matrix" values="0 0 0 0 0 0 0 0 0 0 0 0 0 0 0 0 0 0 0.5 0"/>
<feBlend mode="normal" in2="BackgroundImageFix" result="effect1_dropShadow_32_190"/>
<feColorMatrix in="SourceAlpha" type="matrix" values="0 0 0 0 0 0 0 0 0 0 0 0 0 0 0 0 0 0 127 0" result="hardAlpha"/>
<feOffset dx="-4.69598" dy="-2.34799"/>
<feGaussianBlur stdDeviation="9.39196"/>
<feColorMatrix type="matrix" values="0 0 0 0 0.763833 0 0 0 0 0.783333 0 0 0 0 0.802833 0 0 0 0.08 0"/>
<feBlend mode="normal" in2="effect1_dropShadow_32_190" result="effect2_dropShadow_32_190"/>
<feBlend mode="normal" in="SourceGraphic" in2="effect2_dropShadow_32_190" result="shape"/>
</filter>
<linearGradient id="paint0_linear_32_190" x1="281.787" y1="28.2025" x2="186.014" y2="47.6056" gradientUnits="userSpaceOnUse">
<stop offset="0.2076" stop-color="#008BC6"/>
<stop offset="0.3619" stop-color="#279CB8"/>
<stop offset="0.5505" stop-color="#50AFAA"/>
<stop offset="0.722" stop-color="#6EBCA0"/>
<stop offset="0.8688" stop-color="#81C499"/>
<stop offset="0.9736" stop-color="#87C797"/>
</linearGradient>
<linearGradient id="paint1_linear_32_190" x1="537.493" y1="149.088" x2="8.59506" y2="420.808" gradientUnits="userSpaceOnUse">
<stop stop-color="#F8C429"/>
<stop offset="1" stop-color="#EE81E6"/>
</linearGradient>
<linearGradient id="paint2_linear_32_190" x1="491.361" y1="187.126" x2="35.7431" y2="412.774" gradientUnits="userSpaceOnUse">
<stop stop-color="#F7931D"/>
<stop offset="1" stop-color="#EC1B25"/>
</linearGradient>
<linearGradient id="paint3_linear_32_190" x1="446.087" y1="159.694" x2="67.4379" y2="322.162" gradientUnits="userSpaceOnUse">
<stop stop-color="#23A2E5"/>
<stop offset="1" stop-color="#4933B5"/>
</linearGradient>
<linearGradient id="paint4_linear_32_190" x1="380.245" y1="215.345" x2="159.343" y2="350.623" gradientUnits="userSpaceOnUse">
<stop stop-color="#0BE6F6"/>
<stop offset="1" stop-color="#52D690"/>
</linearGradient>
<clipPath id="clip0_32_190">
<rect width="407.432" height="381.291" fill="white" transform="matrix(-0.939225 -0.343303 -0.343303 0.939225 513.943 140.392)"/>
</clipPath>
</defs>
</svg>
