<svg width="72" height="72" viewBox="0 0 72 72" fill="none" xmlns="http://www.w3.org/2000/svg">
<circle cx="35.9883" cy="35.9883" r="35.1085" stroke="url(#paint0_linear_704_3040)" stroke-width="1.75959"/>
<path d="M55.5517 37.3721L56.0994 36.8243C56.5081 37.0379 56.9166 36.9265 57.1766 36.6664C57.5386 36.3043 57.5386 35.7102 57.1766 35.3479L56.2481 34.438C55.8859 34.076 55.301 34.076 54.9388 34.438C54.6511 34.7352 54.6047 35.1623 54.781 35.5151L54.2889 36.0073C52.6361 34.4473 50.5749 33.3239 48.2816 32.8318V31.439H48.4765C48.9872 31.439 49.405 31.0212 49.405 30.5105C49.405 29.9998 48.9872 29.582 48.4765 29.582H42.7013C42.1906 29.582 41.7728 29.9998 41.7728 30.5105C41.7728 31.0212 42.1906 31.439 42.7013 31.439H42.8962V32.8318C40.5936 33.3239 38.5231 34.4566 36.8703 36.0258L36.3596 35.5151C36.536 35.1623 36.4897 34.7352 36.2018 34.438C35.8396 34.076 35.2547 34.076 34.8927 34.438L33.9642 35.3479C33.602 35.7102 33.602 36.3043 33.9642 36.6664C34.2147 36.9172 34.6234 37.0379 35.0412 36.8243L35.6075 37.3907C33.9178 39.5355 32.9056 42.2282 32.9056 45.1622C32.9056 52.1166 38.5974 57.7805 45.5888 57.7805C52.5806 57.7805 58.2722 52.1166 58.2722 45.1622C58.2722 42.2189 57.2507 39.5169 55.5517 37.3721ZM45.5888 53.3609C41.0393 53.3609 37.3346 49.684 37.3346 45.1622C37.3346 40.6311 41.0393 36.9543 45.5888 36.9543C50.1386 36.9543 53.8432 40.6311 53.8432 45.1622C53.8432 49.684 50.1386 53.3609 45.5888 53.3609Z" fill="white"/>
<path d="M55.5517 37.3721L56.0994 36.8243C56.5081 37.0379 56.9166 36.9265 57.1766 36.6664C57.5386 36.3043 57.5386 35.7102 57.1766 35.3479L56.2481 34.438C55.8859 34.076 55.301 34.076 54.9388 34.438C54.6511 34.7352 54.6047 35.1623 54.781 35.5151L54.2889 36.0073C52.6361 34.4473 50.5749 33.3239 48.2816 32.8318V31.439H48.4765C48.9872 31.439 49.405 31.0212 49.405 30.5105C49.405 29.9998 48.9872 29.582 48.4765 29.582H42.7013C42.1906 29.582 41.7728 29.9998 41.7728 30.5105C41.7728 31.0212 42.1906 31.439 42.7013 31.439H42.8962V32.8318C40.5936 33.3239 38.5231 34.4566 36.8703 36.0258L36.3596 35.5151C36.536 35.1623 36.4897 34.7352 36.2018 34.438C35.8396 34.076 35.2547 34.076 34.8927 34.438L33.9642 35.3479C33.602 35.7102 33.602 36.3043 33.9642 36.6664C34.2147 36.9172 34.6234 37.0379 35.0412 36.8243L35.6075 37.3907C33.9178 39.5355 32.9056 42.2282 32.9056 45.1622C32.9056 52.1166 38.5974 57.7805 45.5888 57.7805C52.5806 57.7805 58.2722 52.1166 58.2722 45.1622C58.2722 42.2189 57.2507 39.5169 55.5517 37.3721ZM45.5888 53.3609C41.0393 53.3609 37.3346 49.684 37.3346 45.1622C37.3346 40.6311 41.0393 36.9543 45.5888 36.9543C50.1386 36.9543 53.8432 40.6311 53.8432 45.1622C53.8432 49.684 50.1386 53.3609 45.5888 53.3609Z" fill="url(#paint1_linear_704_3040)"/>
<path d="M49.6277 42.4432L47.9099 44.1516C48.3225 45.0857 48.1335 46.2083 47.3808 46.9463C46.5942 47.7329 45.4629 47.8706 44.5675 47.4756L43.9547 48.0791C43.6051 48.4469 42.9786 48.4301 42.6454 48.0791C42.2834 47.717 42.2834 47.1228 42.6454 46.7606L43.2584 46.1572C42.8725 45.2832 43.0186 44.1349 43.7967 43.3717C44.521 42.6475 45.6537 42.471 46.5822 42.8517L48.3186 41.1247C48.6806 40.7626 49.2657 40.7626 49.6277 41.1247C49.99 41.4961 49.99 42.081 49.6277 42.4432ZM38.7923 22.4062C38.2444 23.6598 36.9353 24.5418 35.4124 24.5418H23.6856C22.1628 24.5418 20.8537 23.6598 20.3058 22.4062H19.4609V51.7375H32.6362C31.9863 50.4467 31.55 49.1098 31.3085 47.7821H22.3301C21.8194 47.7821 21.4016 47.3642 21.4016 46.8536C21.4016 46.3429 21.8194 45.9251 22.3301 45.9251H31.0857C31.0392 45.0523 31.0671 44.198 31.1694 43.3531H22.3301C21.8194 43.3531 21.4016 42.9353 21.4016 42.4246C21.4016 41.9139 21.8194 41.4962 22.3301 41.4962H31.5128C31.8193 40.3169 32.2742 39.1935 32.859 38.1721C32.7756 38.1071 32.7013 38.0422 32.6269 37.9771C32.5249 38.3856 32.1627 38.6828 31.7263 38.6828H22.3301C21.8194 38.6828 21.4016 38.265 21.4016 37.7543C21.4016 37.2436 21.8194 36.8258 22.3301 36.8258H31.7263C31.81 36.8258 31.8934 36.8351 31.9677 36.863C31.6798 35.9345 31.8657 34.8202 32.6548 34.0403L33.5833 33.1211C34.6512 32.0533 36.406 32.0347 37.5108 33.1211C37.9472 32.8332 38.5415 32.4712 39.4515 32.0347V22.4062H38.7923ZM31.7263 34.0124H22.3301C21.8101 34.0124 21.4016 33.5947 21.4016 33.0839C21.4016 32.5732 21.8101 32.1554 22.3301 32.1554H31.7263C32.237 32.1554 32.6548 32.5732 32.6548 33.0839C32.6548 33.5947 32.237 34.0124 31.7263 34.0124ZM31.7263 29.3421H22.3301C21.8101 29.3421 21.4016 28.9243 21.4016 28.4136C21.4016 27.8937 21.8101 27.4851 22.3301 27.4851H31.7263C32.237 27.4851 32.6548 27.8937 32.6548 28.4136C32.6548 28.9243 32.237 29.3421 31.7263 29.3421Z" fill="white"/>
<path d="M49.6277 42.4432L47.9099 44.1516C48.3225 45.0857 48.1335 46.2083 47.3808 46.9463C46.5942 47.7329 45.4629 47.8706 44.5675 47.4756L43.9547 48.0791C43.6051 48.4469 42.9786 48.4301 42.6454 48.0791C42.2834 47.717 42.2834 47.1228 42.6454 46.7606L43.2584 46.1572C42.8725 45.2832 43.0186 44.1349 43.7967 43.3717C44.521 42.6475 45.6537 42.471 46.5822 42.8517L48.3186 41.1247C48.6806 40.7626 49.2657 40.7626 49.6277 41.1247C49.99 41.4961 49.99 42.081 49.6277 42.4432ZM38.7923 22.4062C38.2444 23.6598 36.9353 24.5418 35.4124 24.5418H23.6856C22.1628 24.5418 20.8537 23.6598 20.3058 22.4062H19.4609V51.7375H32.6362C31.9863 50.4467 31.55 49.1098 31.3085 47.7821H22.3301C21.8194 47.7821 21.4016 47.3642 21.4016 46.8536C21.4016 46.3429 21.8194 45.9251 22.3301 45.9251H31.0857C31.0392 45.0523 31.0671 44.198 31.1694 43.3531H22.3301C21.8194 43.3531 21.4016 42.9353 21.4016 42.4246C21.4016 41.9139 21.8194 41.4962 22.3301 41.4962H31.5128C31.8193 40.3169 32.2742 39.1935 32.859 38.1721C32.7756 38.1071 32.7013 38.0422 32.6269 37.9771C32.5249 38.3856 32.1627 38.6828 31.7263 38.6828H22.3301C21.8194 38.6828 21.4016 38.265 21.4016 37.7543C21.4016 37.2436 21.8194 36.8258 22.3301 36.8258H31.7263C31.81 36.8258 31.8934 36.8351 31.9677 36.863C31.6798 35.9345 31.8657 34.8202 32.6548 34.0403L33.5833 33.1211C34.6512 32.0533 36.406 32.0347 37.5108 33.1211C37.9472 32.8332 38.5415 32.4712 39.4515 32.0347V22.4062H38.7923ZM31.7263 34.0124H22.3301C21.8101 34.0124 21.4016 33.5947 21.4016 33.0839C21.4016 32.5732 21.8101 32.1554 22.3301 32.1554H31.7263C32.237 32.1554 32.6548 32.5732 32.6548 33.0839C32.6548 33.5947 32.237 34.0124 31.7263 34.0124ZM31.7263 29.3421H22.3301C21.8101 29.3421 21.4016 28.9243 21.4016 28.4136C21.4016 27.8937 21.8101 27.4851 22.3301 27.4851H31.7263C32.237 27.4851 32.6548 27.8937 32.6548 28.4136C32.6548 28.9243 32.237 29.3421 31.7263 29.3421Z" fill="url(#paint2_linear_704_3040)"/>
<path d="M41.1042 18.8011H39.0802V20.5467H40.38C40.8907 20.5467 41.3085 20.9645 41.3085 21.4752V28.0954C41.717 27.8633 42.1998 27.724 42.7012 27.724H45.3938V22.9609C45.3938 20.6674 43.4719 18.8011 41.1042 18.8011ZM33.7785 53.5919H18.5325C18.0218 53.5919 17.604 53.174 17.604 52.6634V21.4752C17.604 20.9645 18.0218 20.5467 18.5325 20.5467H20.0182V18.8012H17.9846C15.6264 18.8012 13.7043 20.6674 13.7043 22.9609V53.6476C13.7043 55.9409 15.6264 57.8072 17.9846 57.8072H38.523C36.6846 56.8417 34.8555 55.1331 33.7785 53.5919ZM37.2232 18.3834V21.0667C37.2232 21.958 36.406 22.6823 35.4124 22.6823H23.6857C22.6921 22.6823 21.8751 21.958 21.8751 21.0667V18.3834C21.8751 17.5012 22.6921 16.7677 23.6857 16.7677H26.8517C26.8517 15.3379 28.0588 14.168 29.5445 14.168C31.03 14.168 32.2371 15.3379 32.2371 16.7677H35.4124C36.406 16.7677 37.2232 17.5012 37.2232 18.3834Z" fill="white"/>
<path d="M41.1042 18.8011H39.0802V20.5467H40.38C40.8907 20.5467 41.3085 20.9645 41.3085 21.4752V28.0954C41.717 27.8633 42.1998 27.724 42.7012 27.724H45.3938V22.9609C45.3938 20.6674 43.4719 18.8011 41.1042 18.8011ZM33.7785 53.5919H18.5325C18.0218 53.5919 17.604 53.174 17.604 52.6634V21.4752C17.604 20.9645 18.0218 20.5467 18.5325 20.5467H20.0182V18.8012H17.9846C15.6264 18.8012 13.7043 20.6674 13.7043 22.9609V53.6476C13.7043 55.9409 15.6264 57.8072 17.9846 57.8072H38.523C36.6846 56.8417 34.8555 55.1331 33.7785 53.5919ZM37.2232 18.3834V21.0667C37.2232 21.958 36.406 22.6823 35.4124 22.6823H23.6857C22.6921 22.6823 21.8751 21.958 21.8751 21.0667V18.3834C21.8751 17.5012 22.6921 16.7677 23.6857 16.7677H26.8517C26.8517 15.3379 28.0588 14.168 29.5445 14.168C31.03 14.168 32.2371 15.3379 32.2371 16.7677H35.4124C36.406 16.7677 37.2232 17.5012 37.2232 18.3834Z" fill="url(#paint3_linear_704_3040)"/>
<defs>
<linearGradient id="paint0_linear_704_3040" x1="18.0816" y1="6.80231" x2="5.65513" y2="43.1078" gradientUnits="userSpaceOnUse">
<stop stop-color="#29CC93"/>
<stop offset="1" stop-color="#A0CC48"/>
</linearGradient>
<linearGradient id="paint1_linear_704_3040" x1="39.2781" y1="32.247" x2="33.9968" y2="46.1274" gradientUnits="userSpaceOnUse">
<stop stop-color="#29CC93"/>
<stop offset="1" stop-color="#A0CC48"/>
</linearGradient>
<linearGradient id="paint2_linear_704_3040" x1="27.1075" y1="25.1783" x2="22.191" y2="40.0848" gradientUnits="userSpaceOnUse">
<stop stop-color="#29CC93"/>
<stop offset="1" stop-color="#A0CC48"/>
</linearGradient>
<linearGradient id="paint3_linear_704_3040" x1="21.6652" y1="18.2922" x2="12.1815" y2="38.4128" gradientUnits="userSpaceOnUse">
<stop stop-color="#29CC93"/>
<stop offset="1" stop-color="#A0CC48"/>
</linearGradient>
</defs>
</svg>
