<svg width="23" height="22" viewBox="0 0 23 22" fill="none" xmlns="http://www.w3.org/2000/svg">
<path fill-rule="evenodd" clip-rule="evenodd" d="M7.17203 0.066C8.34503 0.012 8.71903 0 11.707 0C14.695 0 15.069 0.013 16.241 0.066C17.413 0.119 18.213 0.306 18.913 0.577C19.646 0.854 20.311 1.287 20.861 1.847C21.421 2.396 21.853 3.06 22.129 3.794C22.401 4.494 22.587 5.294 22.641 6.464C22.695 7.639 22.707 8.013 22.707 11C22.707 13.988 22.694 14.362 22.641 15.535C22.588 16.705 22.401 17.505 22.129 18.205C21.853 18.9391 21.4203 19.6042 20.861 20.154C20.311 20.714 19.646 21.146 18.913 21.422C18.213 21.694 17.413 21.88 16.243 21.934C15.069 21.988 14.695 22 11.707 22C8.71903 22 8.34503 21.987 7.17203 21.934C6.00203 21.881 5.20203 21.694 4.50203 21.422C3.76795 21.146 3.10285 20.7133 2.55303 20.154C1.99341 19.6047 1.56035 18.9399 1.28403 18.206C1.01303 17.506 0.827031 16.706 0.773031 15.536C0.719031 14.361 0.707031 13.987 0.707031 11C0.707031 8.012 0.720031 7.638 0.773031 6.466C0.826031 5.294 1.01303 4.494 1.28403 3.794C1.56075 3.06008 1.99415 2.39531 2.55403 1.846C3.10307 1.2865 3.7675 0.853443 4.50103 0.577C5.20103 0.306 6.00103 0.12 7.17103 0.066H7.17203ZM16.152 2.046C14.992 1.993 14.644 1.982 11.707 1.982C8.77003 1.982 8.42203 1.993 7.26203 2.046C6.18903 2.095 5.60703 2.274 5.21903 2.425C4.70603 2.625 4.33903 2.862 3.95403 3.247C3.58908 3.60205 3.30821 4.03428 3.13203 4.512C2.98103 4.9 2.80203 5.482 2.75303 6.555C2.70003 7.715 2.68903 8.063 2.68903 11C2.68903 13.937 2.70003 14.285 2.75303 15.445C2.80203 16.518 2.98103 17.1 3.13203 17.488C3.30803 17.965 3.58903 18.398 3.95403 18.753C4.30903 19.118 4.74203 19.399 5.21903 19.575C5.60703 19.726 6.18903 19.905 7.26203 19.954C8.42203 20.007 8.76903 20.018 11.707 20.018C14.645 20.018 14.992 20.007 16.152 19.954C17.225 19.905 17.807 19.726 18.195 19.575C18.708 19.375 19.075 19.138 19.46 18.753C19.825 18.398 20.106 17.965 20.282 17.488C20.433 17.1 20.612 16.518 20.661 15.445C20.714 14.285 20.725 13.937 20.725 11C20.725 8.063 20.714 7.715 20.661 6.555C20.612 5.482 20.433 4.9 20.282 4.512C20.082 3.999 19.845 3.632 19.46 3.247C19.105 2.88207 18.6727 2.60121 18.195 2.425C17.807 2.274 17.225 2.095 16.152 2.046ZM10.302 14.391C11.0867 14.7176 11.9604 14.7617 12.774 14.5157C13.5875 14.2697 14.2904 13.7489 14.7626 13.0422C15.2349 12.3356 15.4471 11.4869 15.3631 10.6411C15.2791 9.79534 14.904 9.00497 14.302 8.405C13.9183 8.02148 13.4542 7.72781 12.9434 7.54515C12.4325 7.36248 11.8875 7.29536 11.3475 7.34862C10.8076 7.40187 10.2862 7.57418 9.82084 7.85313C9.35549 8.13208 8.95778 8.51074 8.65633 8.96185C8.35489 9.41296 8.15722 9.92529 8.07755 10.462C7.99787 10.9986 8.03818 11.5463 8.19557 12.0655C8.35296 12.5847 8.62351 13.0626 8.98775 13.4647C9.35199 13.8668 9.80086 14.1832 10.302 14.391ZM7.70903 7.002C8.23406 6.47697 8.85735 6.0605 9.54333 5.77636C10.2293 5.49222 10.9645 5.34597 11.707 5.34597C12.4495 5.34597 13.1848 5.49222 13.8707 5.77636C14.5567 6.0605 15.18 6.47697 15.705 7.002C16.2301 7.52702 16.6465 8.15032 16.9307 8.8363C17.2148 9.52228 17.3611 10.2575 17.3611 11C17.3611 11.7425 17.2148 12.4777 16.9307 13.1637C16.6465 13.8497 16.2301 14.473 15.705 14.998C14.6447 16.0583 13.2066 16.654 11.707 16.654C10.2075 16.654 8.76937 16.0583 7.70903 14.998C6.6487 13.9377 6.05301 12.4995 6.05301 11C6.05301 9.50046 6.6487 8.06234 7.70903 7.002ZM18.615 6.188C18.7451 6.06527 18.8493 5.91768 18.9213 5.75397C18.9934 5.59027 19.0318 5.41377 19.0344 5.23493C19.0371 5.05609 19.0038 4.87855 18.9365 4.71281C18.8693 4.54707 18.7695 4.39651 18.643 4.27004C18.5165 4.14357 18.366 4.04376 18.2002 3.97652C18.0345 3.90928 17.8569 3.87598 17.6781 3.87858C17.4993 3.88119 17.3228 3.91965 17.1591 3.9917C16.9953 4.06374 16.8478 4.1679 16.725 4.298C16.4863 4.55103 16.3557 4.88712 16.3607 5.23493C16.3658 5.58274 16.5062 5.91488 16.7522 6.16084C16.9982 6.40681 17.3303 6.54723 17.6781 6.5523C18.0259 6.55737 18.362 6.42669 18.615 6.188Z" fill="white"/>
</svg>
