<svg width="10" height="12" viewBox="0 0 10 12" fill="none" xmlns="http://www.w3.org/2000/svg">
<path d="M4.57143 0C3.35945 0.00142981 2.19752 0.48352 1.34052 1.34052C0.483525 2.19752 0.00143467 3.35945 4.86353e-06 4.57143C-0.00144673 5.56186 0.322074 6.52541 0.920939 7.31428C0.920939 7.31428 1.04561 7.47844 1.06598 7.50213L4.57143 11.6364L8.07854 7.50005C8.09683 7.47802 8.22192 7.31428 8.22192 7.31428L8.22234 7.31303C8.8209 6.52451 9.14428 5.5614 9.14286 4.57143C9.14143 3.35945 8.65934 2.19752 7.80234 1.34052C6.94534 0.48352 5.78341 0.00142981 4.57143 0V0ZM4.57143 6.23376C4.24265 6.23376 3.92126 6.13627 3.64789 5.95361C3.37452 5.77095 3.16145 5.51133 3.03563 5.20757C2.90981 4.90382 2.87689 4.56958 2.94103 4.24712C3.00518 3.92466 3.1635 3.62846 3.39598 3.39598C3.62846 3.16349 3.92466 3.00517 4.24712 2.94103C4.56959 2.87689 4.90383 2.90981 5.20758 3.03563C5.51133 3.16145 5.77095 3.37451 5.95361 3.64788C6.13627 3.92125 6.23377 4.24265 6.23377 4.57143C6.23322 5.01214 6.0579 5.43464 5.74627 5.74627C5.43464 6.0579 5.01214 6.23321 4.57143 6.23376V6.23376Z" fill="#E9ECEF"/>
</svg>
