<svg width="72" height="72" viewBox="0 0 72 72" fill="none" xmlns="http://www.w3.org/2000/svg">
<circle cx="35.9883" cy="35.9883" r="35.1085" stroke="url(#paint0_linear_705_3082)" stroke-width="1.75959"/>
<g clip-path="url(#clip0_705_3082)">
<path d="M37.7779 27.9183C41.3834 27.9183 44.3063 24.9954 44.3063 21.3898C44.3063 17.7842 41.3834 14.8613 37.7779 14.8613C34.1723 14.8613 31.2494 17.7842 31.2494 21.3898C31.2494 24.9954 34.1723 27.9183 37.7779 27.9183Z" fill="white"/>
<path d="M37.7779 27.9183C41.3834 27.9183 44.3063 24.9954 44.3063 21.3898C44.3063 17.7842 41.3834 14.8613 37.7779 14.8613C34.1723 14.8613 31.2494 17.7842 31.2494 21.3898C31.2494 24.9954 34.1723 27.9183 37.7779 27.9183Z" fill="url(#paint1_linear_705_3082)"/>
<path d="M56.638 38.073H53.3302L47.5924 31.7549C47.1157 31.2323 46.5355 30.8147 45.8885 30.5287C45.2416 30.2427 44.5422 30.0946 43.8349 30.0938H31.7209C31.0136 30.0946 30.3142 30.2427 29.6673 30.5287C29.0203 30.8147 28.4401 31.2323 27.9634 31.7549L22.2256 38.073H18.9179C18.3407 38.073 17.7872 38.3023 17.3791 38.7104C16.971 39.1185 16.7417 39.672 16.7417 40.2492C16.7417 40.8263 16.971 41.3798 17.3791 41.7879C17.7872 42.196 18.3407 42.4253 18.9179 42.4253H24.7209C24.8904 42.4253 25.0545 42.3664 25.1852 42.2585L29.6826 38.5082L30.2411 45.4502L21.7106 44.7683C20.9072 44.7027 20.1076 44.9337 19.4631 45.4178C18.8186 45.9019 18.3738 46.6054 18.213 47.3953C18.0521 48.1851 18.1864 49.0066 18.5903 49.7041C18.9942 50.4017 19.6398 50.927 20.4049 51.1807L29.8712 54.3362L36.1603 56.4325C36.71 56.6148 37.3069 56.5935 37.8421 56.3725C38.3774 56.1515 38.8154 55.7454 39.0763 55.2284C39.157 55.0696 39.2179 54.9015 39.2577 54.7279C39.3969 54.1736 39.3338 53.588 39.0798 53.0761C38.8259 52.5642 38.3977 52.1596 37.8722 51.9351L30.9375 48.961L31.5033 47.6263L38.3219 50.5496L38.3147 50.5206L45.5395 48.2647L45.9748 49.6429L39.7872 51.5797C40.1193 51.9398 40.378 52.3611 40.5489 52.8201C40.7276 53.3146 40.8041 53.8402 40.7738 54.3652L54.9333 50.9994C55.709 50.8131 56.3861 50.3413 56.8295 49.6781C57.2728 49.0148 57.4499 48.2089 57.3255 47.4208C57.201 46.6328 56.7841 45.9206 56.1579 45.4263C55.5317 44.932 54.7422 44.6919 53.9468 44.7538L45.3147 45.4502L45.8732 38.5082L50.3706 42.2585C50.5013 42.3664 50.6654 42.4253 50.8349 42.4253H56.638C57.2151 42.4253 57.7686 42.196 58.1767 41.7879C58.5848 41.3798 58.8141 40.8263 58.8141 40.2492C58.8141 39.672 58.5848 39.1185 58.1767 38.7104C57.7686 38.3023 57.2151 38.073 56.638 38.073Z" fill="white"/>
<path d="M56.638 38.073H53.3302L47.5924 31.7549C47.1157 31.2323 46.5355 30.8147 45.8885 30.5287C45.2416 30.2427 44.5422 30.0946 43.8349 30.0938H31.7209C31.0136 30.0946 30.3142 30.2427 29.6673 30.5287C29.0203 30.8147 28.4401 31.2323 27.9634 31.7549L22.2256 38.073H18.9179C18.3407 38.073 17.7872 38.3023 17.3791 38.7104C16.971 39.1185 16.7417 39.672 16.7417 40.2492C16.7417 40.8263 16.971 41.3798 17.3791 41.7879C17.7872 42.196 18.3407 42.4253 18.9179 42.4253H24.7209C24.8904 42.4253 25.0545 42.3664 25.1852 42.2585L29.6826 38.5082L30.2411 45.4502L21.7106 44.7683C20.9072 44.7027 20.1076 44.9337 19.4631 45.4178C18.8186 45.9019 18.3738 46.6054 18.213 47.3953C18.0521 48.1851 18.1864 49.0066 18.5903 49.7041C18.9942 50.4017 19.6398 50.927 20.4049 51.1807L29.8712 54.3362L36.1603 56.4325C36.71 56.6148 37.3069 56.5935 37.8421 56.3725C38.3774 56.1515 38.8154 55.7454 39.0763 55.2284C39.157 55.0696 39.2179 54.9015 39.2577 54.7279C39.3969 54.1736 39.3338 53.588 39.0798 53.0761C38.8259 52.5642 38.3977 52.1596 37.8722 51.9351L30.9375 48.961L31.5033 47.6263L38.3219 50.5496L38.3147 50.5206L45.5395 48.2647L45.9748 49.6429L39.7872 51.5797C40.1193 51.9398 40.378 52.3611 40.5489 52.8201C40.7276 53.3146 40.8041 53.8402 40.7738 54.3652L54.9333 50.9994C55.709 50.8131 56.3861 50.3413 56.8295 49.6781C57.2728 49.0148 57.4499 48.2089 57.3255 47.4208C57.201 46.6328 56.7841 45.9206 56.1579 45.4263C55.5317 44.932 54.7422 44.6919 53.9468 44.7538L45.3147 45.4502L45.8732 38.5082L50.3706 42.2585C50.5013 42.3664 50.6654 42.4253 50.8349 42.4253H56.638C57.2151 42.4253 57.7686 42.196 58.1767 41.7879C58.5848 41.3798 58.8141 40.8263 58.8141 40.2492C58.8141 39.672 58.5848 39.1185 58.1767 38.7104C57.7686 38.3023 57.2151 38.073 56.638 38.073Z" fill="url(#paint2_linear_705_3082)"/>
</g>
<defs>
<linearGradient id="paint0_linear_705_3082" x1="31.3798" y1="64.0725" x2="69.5907" y2="49.2276" gradientUnits="userSpaceOnUse">
<stop stop-color="#F8C429"/>
<stop offset="1" stop-color="#EE81E6"/>
</linearGradient>
<linearGradient id="paint1_linear_705_3082" x1="36.9419" y1="26.4844" x2="43.8735" y2="23.7915" gradientUnits="userSpaceOnUse">
<stop stop-color="#F8C429"/>
<stop offset="1" stop-color="#EE81E6"/>
</linearGradient>
<linearGradient id="paint2_linear_705_3082" x1="35.0841" y1="53.6494" x2="53.6912" y2="42.156" gradientUnits="userSpaceOnUse">
<stop stop-color="#F8C429"/>
<stop offset="1" stop-color="#EE81E6"/>
</linearGradient>
<clipPath id="clip0_705_3082">
<rect width="46.4247" height="46.4247" fill="white" transform="translate(12.7759 12.7754)"/>
</clipPath>
</defs>
</svg>
