<svg width="63" height="63" viewBox="0 0 63 63" fill="none" xmlns="http://www.w3.org/2000/svg">
<circle cx="31.8509" cy="31.6495" r="30.2498" stroke="white" stroke-width="1.51608"/>
<path d="M30.6716 15.7354C30.3475 15.7361 30.0234 15.7435 29.6996 15.7577C29.0038 15.8814 28.6825 16.1861 28.508 16.5348C28.3158 16.9192 28.3233 17.4365 28.5376 17.8965C28.7521 18.3568 29.1455 18.733 29.6947 18.8736C30.244 19.0141 31.0001 18.9415 31.994 18.3062L32.7884 19.5496C31.5396 20.3477 30.3313 20.5582 29.3296 20.3019C28.3279 20.0456 27.5847 19.3449 27.2006 18.5207C26.8387 17.7442 26.7722 16.8332 27.1193 16.0241C23.7312 16.572 20.6634 17.8713 18.307 19.7C17.5326 20.5437 17.4568 21.5244 17.7962 22.1941C18.1775 22.9462 19.0759 23.4951 20.8727 22.9267L21.3192 24.333C19.063 25.0466 17.2033 24.2866 16.4815 22.8626C16.3054 22.5155 16.1979 22.1398 16.1557 21.7524C15.7756 22.2034 15.4326 22.6728 15.1294 23.1611L15.1394 23.1659C14.4593 24.7144 14.4438 25.7871 14.7149 26.4841C14.9862 27.1811 15.5545 27.624 16.4296 27.8681C18.1797 28.356 21.0135 27.7673 23.0091 26.2769C23.8633 25.639 24.673 24.092 24.7435 22.8922C24.7786 22.2922 24.6515 21.8182 24.4005 21.5155C24.1495 21.2129 23.7475 20.9864 22.9153 20.995L22.9006 19.5198C24.0442 19.508 24.9729 19.8951 25.5353 20.5732C26.0977 21.2514 26.2664 22.1247 26.2162 22.9785C26.116 24.6863 25.2219 26.4657 23.8923 27.4586C21.5337 29.2202 18.4186 29.9538 16.0349 29.2892C14.9306 28.9813 13.9531 28.3114 13.4495 27.2738C12.6959 30.8615 13.7907 34.194 15.8745 36.5003C16.1468 36.8019 16.4367 37.0869 16.7405 37.3513C16.5231 36.7287 16.4235 36.0803 16.4468 35.4493C16.4887 34.3185 16.927 33.2116 17.8063 32.4471C18.5273 31.8198 19.5235 31.4579 20.7148 31.4603C20.7942 31.4603 20.8754 31.4617 20.9565 31.465C21.1421 31.4729 21.3326 31.489 21.5265 31.5144L21.3339 32.9774C20.1033 32.8157 19.3046 33.0976 18.7733 33.5596C18.242 34.0218 17.9488 34.7133 17.9196 35.5037C17.8612 37.0844 18.8725 38.9303 21.0529 39.4657L21.0504 39.4806C23.1971 39.8903 25.5926 39.5099 27.9975 38.0422C27.999 38.0412 28.0009 38.0408 28.0024 38.0398C28.5029 37.6885 28.7725 37.3445 28.9054 37.048C29.0621 36.6982 29.0588 36.3934 28.9472 36.0661C28.7243 35.4117 27.9257 34.7389 27.1932 34.5514C26.0089 34.2483 25.2566 34.6648 24.9039 35.1609C24.5511 35.6566 24.5297 36.1437 25.0741 36.5669L24.1686 37.7313C23.0486 36.8603 22.9771 35.3245 23.7024 34.3047C24.2465 33.5399 25.2012 33.0159 26.3521 32.9824C26.4006 32.9807 26.4491 32.9799 26.4977 32.98C26.8376 32.9824 27.1916 33.0291 27.5584 33.1229C28.7825 33.4363 29.9142 34.329 30.3436 35.5899C30.4582 35.928 30.5084 36.2845 30.4917 36.641C31.8109 35.967 33.202 35.3684 34.6191 34.9189C36.9998 33.8311 38.0319 31.9239 37.9916 30.318C37.951 28.7002 36.9506 27.3386 34.6463 27.1108L34.7918 25.6429C37.6864 25.9292 39.4071 27.9993 39.4644 30.2809C39.4977 31.6103 39.0102 32.9937 38.0286 34.1713C39.2974 34.0292 40.5583 34.0533 41.7808 34.2997C41.532 33.7888 41.4113 33.2357 41.4282 32.6863C41.4816 30.9466 42.9613 29.3238 45.2866 29.2991C45.4454 29.2976 45.6043 29.3033 45.7626 29.3163L45.6442 30.7866C43.6763 30.6289 42.9364 31.6618 42.9034 32.7331C42.8709 33.7925 43.578 34.9784 45.6049 35.1358C47.839 35.1556 49.4406 33.9439 50.2255 32.1434C51.2763 29.7327 50.7779 26.1186 47.4748 22.8131C47.4122 22.7505 47.3502 22.6873 47.2873 22.6256C47.2526 22.92 47.1771 23.2081 47.0629 23.4816C46.4906 24.8545 45.1498 25.7811 43.7571 26.04C41.836 26.397 40.2606 25.6179 39.5336 24.4291C38.8065 23.2404 38.9974 21.5594 40.3056 20.6745L41.1322 21.8981C40.4286 22.374 40.3996 23.0183 40.7917 23.6594C41.1838 24.3005 42.0682 24.8558 43.4881 24.592C44.3807 24.4261 45.3746 23.6976 45.701 22.9144C45.8644 22.5229 45.8959 22.1359 45.7332 21.6932C45.6009 21.3336 45.3237 20.9223 44.8079 20.4892L44.7932 20.477C42.6367 18.8518 40.3456 17.6829 38.0237 16.9121C38.0251 16.9146 38.0272 16.9168 38.0286 16.9195C38.5563 17.8842 38.5955 18.9785 38.2704 19.9465C37.6205 21.8826 35.5808 23.4081 33.0576 23.3238C32.5091 23.3056 31.9871 23.5701 31.5429 24.0861C31.0987 24.6022 30.7744 25.3582 30.6992 26.1634C30.5488 27.7739 31.2457 29.549 33.9631 30.4264L33.5087 31.8302C30.2654 30.7831 29.0222 28.2346 29.2283 26.0278C29.3315 24.9245 29.7577 23.8993 30.4248 23.1242C31.0921 22.3491 32.0412 21.8135 33.1066 21.8488C35.0044 21.9121 36.4478 20.7369 36.8712 19.4754C37.083 18.8448 37.0556 18.2173 36.7331 17.6277C36.4198 17.0552 35.7992 16.4891 34.6879 16.076C33.3616 15.8457 32.0178 15.7317 30.6716 15.7354ZM38.6622 35.6246C35.3532 35.8938 31.7651 37.4719 28.772 39.3004C24.3527 42.0002 19.702 41.4108 16.4023 38.9625C17.7005 43.6079 22.3004 44.5509 27.0993 43.3759C27.5795 43.1955 28.0514 42.8598 28.4538 42.4262C29.0109 41.8257 29.4145 41.0471 29.5416 40.4033L30.9898 40.6894C30.7968 41.667 30.2731 42.6367 29.5367 43.4304C28.8302 44.1918 27.9097 44.8001 26.8452 44.9599C26.311 46.1496 25.8715 47.303 25.6931 48.1102C25.4128 49.3781 26.8146 49.8648 27.4422 48.5863C28.9438 45.5277 31.0634 42.8052 33.7108 40.4576C35.7685 39.1034 37.5322 37.4338 38.6622 35.6246Z" fill="white"/>
</svg>
