<svg width="333" height="102" viewBox="0 0 333 102" fill="none" xmlns="http://www.w3.org/2000/svg">
<path d="M332.508 96.5875C332.508 99.533 330.12 101.921 327.175 101.921C324.229 101.921 321.842 99.533 321.842 96.5875C321.842 93.6419 324.229 91.2541 327.175 91.2541C330.12 91.2541 332.508 93.6419 332.508 96.5875ZM232.107 1.51929V0.519287H232.521L232.814 0.81218L232.107 1.51929ZM326.468 97.2946L322.507 93.3334L323.921 91.9192L327.882 95.8804L326.468 97.2946ZM314.584 85.411L306.662 77.4887L308.076 76.0745L315.999 83.9968L314.584 85.411ZM298.74 69.5664L290.817 61.644L292.231 60.2298L300.154 68.1521L298.74 69.5664ZM282.895 53.7217L274.973 45.7993L276.387 44.3851L284.309 52.3074L282.895 53.7217ZM267.05 37.877L259.128 29.9546L260.542 28.5404L268.464 36.4627L267.05 37.877ZM251.206 22.0323L243.283 14.1099L244.697 12.6957L252.62 20.618L251.206 22.0323ZM235.361 6.18757L231.4 2.22639L232.814 0.81218L236.775 4.77336L235.361 6.18757ZM232.107 2.51929H226.844V0.519287H232.107V2.51929ZM216.319 2.51929H205.794V0.519287H216.319V2.51929ZM195.269 2.51929H184.743V0.519287H195.269V2.51929ZM174.218 2.51929H163.693V0.519287H174.218V2.51929ZM153.168 2.51929H142.643V0.519287H153.168V2.51929ZM132.118 2.51929H121.592V0.519287H132.118V2.51929ZM111.067 2.51929H100.542V0.519287H111.067V2.51929ZM90.0168 2.51929H79.4916V0.519287H90.0168V2.51929ZM68.9664 2.51929H58.4412V0.519287H68.9664V2.51929ZM47.916 2.51929H37.3908V0.519287H47.916V2.51929ZM26.8656 2.51929H16.3404V0.519287H26.8656V2.51929ZM5.81525 2.51929H0.552673V0.519287H5.81525V2.51929Z" fill="white"/>
</svg>
