<svg width="292" height="91" viewBox="0 0 292 91" fill="none" xmlns="http://www.w3.org/2000/svg">
<path d="M291.333 85C291.333 87.9455 288.946 90.3333 286 90.3333C283.054 90.3333 280.667 87.9455 280.667 85C280.667 82.0545 283.054 79.6667 286 79.6667C288.946 79.6667 291.333 82.0545 291.333 85ZM202.756 1V0H203.172L203.466 0.296095L202.756 1ZM285.29 85.7039L281.127 81.5039L282.548 80.0961L286.71 84.2961L285.29 85.7039ZM272.803 73.1039L264.479 64.7039L265.899 63.2961L274.224 71.6961L272.803 73.1039ZM256.154 56.3039L247.83 47.9039L249.25 46.4961L257.575 54.8961L256.154 56.3039ZM239.505 39.5039L231.181 31.1039L232.601 29.6961L240.926 38.0961L239.505 39.5039ZM222.856 22.7039L214.532 14.3039L215.953 12.8961L224.277 21.2961L222.856 22.7039ZM206.207 5.90391L202.045 1.70391L203.466 0.296095L207.628 4.4961L206.207 5.90391ZM202.756 2H197.123V0H202.756V2ZM185.859 2H174.595V0H185.859V2ZM163.331 2H152.067V0H163.331V2ZM140.802 2H129.538V0H140.802V2ZM118.274 2H107.01V0H118.274V2ZM95.7457 2H84.4815V0H95.7457V2ZM73.2173 2H61.9531V0H73.2173V2ZM50.6889 2H39.4247V0H50.6889V2ZM28.1605 2H16.8963V0H28.1605V2ZM5.63214 2H2.43608e-06V0H5.63214V2Z" fill="white"/>
</svg>
