<svg width="12" height="13" viewBox="0 0 12 13" fill="none" xmlns="http://www.w3.org/2000/svg">
<g clip-path="url(#clip0_99_1290)">
<rect width="12" height="12" transform="translate(0 0.5)" fill="white" fill-opacity="0.01"/>
<g opacity="0.6">
<path fill-rule="evenodd" clip-rule="evenodd" d="M3.48322 1.73371C3.51805 1.69878 3.55943 1.67108 3.60499 1.65217C3.65055 1.63327 3.69939 1.62354 3.74872 1.62354C3.79804 1.62354 3.84688 1.63327 3.89244 1.65217C3.938 1.67108 3.97938 1.69878 4.01422 1.73371L8.51422 6.23371C8.54914 6.26854 8.57685 6.30992 8.59575 6.35548C8.61466 6.40104 8.62439 6.44988 8.62439 6.49921C8.62439 6.54853 8.61466 6.59737 8.59575 6.64293C8.57685 6.68849 8.54914 6.72987 8.51422 6.76471L4.01422 11.2647C3.9438 11.3351 3.8483 11.3747 3.74872 11.3747C3.64914 11.3747 3.55363 11.3351 3.48322 11.2647C3.4128 11.1943 3.37324 11.0988 3.37324 10.9992C3.37324 10.8996 3.4128 10.8041 3.48322 10.7337L7.71847 6.49921L3.48322 2.26471C3.44829 2.22987 3.42059 2.18849 3.40168 2.14293C3.38278 2.09737 3.37305 2.04853 3.37305 1.99921C3.37305 1.94988 3.38278 1.90104 3.40168 1.85548C3.42059 1.80992 3.44829 1.76854 3.48322 1.73371Z" fill="white"/>
</g>
</g>
<defs>
<clipPath id="clip0_99_1290">
<rect width="12" height="12" fill="white" transform="translate(0 0.5)"/>
</clipPath>
</defs>
</svg>
