<svg width="333" height="102" viewBox="0 0 333 102" fill="none" xmlns="http://www.w3.org/2000/svg">
<path d="M332.114 5.51996C332.114 2.57444 329.726 0.186623 326.78 0.186623C323.835 0.186623 321.447 2.57444 321.447 5.51996C321.447 8.46548 323.835 10.8533 326.78 10.8533C329.726 10.8533 332.114 8.46548 332.114 5.51996ZM231.712 100.588V101.588H232.126L232.419 101.295L231.712 100.588ZM326.073 4.81285L322.112 8.77402L323.526 10.1882L327.487 6.22707L326.073 4.81285ZM314.19 16.6964L306.267 24.6187L307.682 26.0329L315.604 18.1106L314.19 16.6964ZM298.345 32.5411L290.423 40.4634L291.837 41.8776L299.759 33.9553L298.345 32.5411ZM282.5 48.3858L274.578 56.3081L275.992 57.7223L283.914 49.8L282.5 48.3858ZM266.656 64.2305L258.733 72.1528L260.147 73.567L268.07 65.6447L266.656 64.2305ZM250.811 80.0752L242.889 87.9975L244.303 89.4117L252.225 81.4894L250.811 80.0752ZM234.966 95.9199L231.005 99.881L232.419 101.295L236.38 97.3341L234.966 95.9199ZM231.712 99.5881H226.45V101.588H231.712V99.5881ZM215.924 99.5881H205.399V101.588H215.924V99.5881ZM194.874 99.5881H184.349V101.588H194.874V99.5881ZM173.824 99.5881H163.298V101.588H173.824V99.5881ZM152.773 99.5881H142.248V101.588H152.773V99.5881ZM131.723 99.5881H121.198V101.588H131.723V99.5881ZM110.673 99.5881H100.147V101.588H110.673V99.5881ZM89.6221 99.5881H79.0969V101.588H89.6221V99.5881ZM68.5717 99.5881H58.0465V101.588H68.5717V99.5881ZM47.5213 99.5881H36.9962V101.588H47.5213V99.5881ZM26.4709 99.5881H15.9458V101.588H26.4709V99.5881ZM5.42059 99.5881H0.15802V101.588H5.42059V99.5881Z" fill="white"/>
</svg>
