<svg width="63" height="63" viewBox="0 0 63 63" fill="none" xmlns="http://www.w3.org/2000/svg">
<circle cx="31.158" cy="31.1915" r="30.2498" stroke="white" stroke-width="1.51608"/>
<g clip-path="url(#clip0_560_1647)">
<path d="M48.0141 32.3839L48.4859 31.9119C48.8381 32.0959 49.19 31.9999 49.4141 31.7759C49.726 31.4639 49.726 30.9519 49.4141 30.6398L48.6141 29.8559C48.3019 29.5439 47.798 29.5439 47.4859 29.8559C47.2381 30.1119 47.198 30.4799 47.35 30.7839L46.926 31.2079C45.5019 29.8639 43.726 28.8959 41.75 28.4719V27.2719H41.918C42.358 27.2719 42.718 26.9119 42.718 26.4719C42.718 26.0318 42.358 25.6719 41.918 25.6719H36.942C36.5019 25.6719 36.142 26.0318 36.142 26.4719C36.142 26.9119 36.5019 27.2719 36.942 27.2719H37.11V28.4719C35.126 28.8959 33.342 29.8719 31.918 31.2239L31.4779 30.7839C31.6299 30.4799 31.59 30.1119 31.342 29.8559C31.0299 29.5439 30.526 29.5439 30.2141 29.8559L29.4141 30.6398C29.1019 30.952 29.1019 31.4639 29.4141 31.7759C29.6299 31.9919 29.982 32.0959 30.342 31.9119L30.8299 32.3999C29.374 34.2479 28.502 36.568 28.502 39.0959C28.502 45.0879 33.4061 49.968 39.4299 49.968C45.4541 49.968 50.358 45.0879 50.358 39.0959C50.358 36.56 49.4779 34.2318 48.0141 32.3839ZM39.4299 46.16C35.51 46.16 32.318 42.9919 32.318 39.0959C32.318 35.1919 35.51 32.0239 39.4299 32.0239C43.35 32.0239 46.542 35.1919 46.542 39.0959C46.542 42.9919 43.35 46.16 39.4299 46.16Z" fill="white"/>
<path d="M42.91 36.7514L41.4299 38.2233C41.7853 39.0282 41.6225 39.9954 40.974 40.6313C40.2962 41.309 39.3215 41.4277 38.55 41.0873L38.0221 41.6073C37.7208 41.9242 37.181 41.9097 36.8939 41.6073C36.582 41.2953 36.582 40.7833 36.8939 40.4713L37.4221 39.9514C37.0896 39.1983 37.2154 38.209 37.8859 37.5514C38.51 36.9273 39.4859 36.7753 40.2859 37.1033L41.782 35.6153C42.0939 35.3033 42.598 35.3033 42.91 35.6153C43.2221 35.9353 43.2221 36.4393 42.91 36.7514ZM33.574 19.4873C33.102 20.5674 31.974 21.3273 30.6619 21.3273H20.558C19.2459 21.3273 18.118 20.5674 17.6459 19.4873H16.918V44.7594H28.2699C27.71 43.6473 27.334 42.4953 27.126 41.3514H19.39C18.95 41.3514 18.59 40.9913 18.59 40.5514C18.59 40.1113 18.95 39.7514 19.39 39.7514H26.934C26.8939 38.9993 26.918 38.2633 27.0061 37.5354H19.39C18.95 37.5354 18.59 37.1753 18.59 36.7354C18.59 36.2953 18.95 35.9354 19.39 35.9354H27.302C27.566 34.9193 27.958 33.9514 28.4619 33.0713C28.39 33.0153 28.326 32.9594 28.2619 32.9033C28.174 33.2553 27.8619 33.5113 27.4859 33.5113H19.39C18.95 33.5113 18.59 33.1514 18.59 32.7113C18.59 32.2713 18.95 31.9113 19.39 31.9113H27.4859C27.558 31.9113 27.6299 31.9193 27.6939 31.9434C27.4459 31.1434 27.6061 30.1833 28.2859 29.5113L29.0859 28.7193C30.0061 27.7993 31.518 27.7833 32.4699 28.7193C32.8459 28.4713 33.358 28.1594 34.142 27.7833V19.4873H33.574ZM27.4859 29.4873H19.39C18.942 29.4873 18.59 29.1273 18.59 28.6873C18.59 28.2473 18.942 27.8873 19.39 27.8873H27.4859C27.926 27.8873 28.2859 28.2473 28.2859 28.6873C28.2859 29.1273 27.926 29.4873 27.4859 29.4873ZM27.4859 25.4633H19.39C18.942 25.4633 18.59 25.1033 18.59 24.6633C18.59 24.2153 18.942 23.8633 19.39 23.8633H27.4859C27.926 23.8633 28.2859 24.2153 28.2859 24.6633C28.2859 25.1033 27.926 25.4633 27.4859 25.4633Z" fill="white"/>
<path d="M35.566 16.3836H33.8221V17.8876H34.942C35.382 17.8876 35.742 18.2476 35.742 18.6876V24.3916C36.0939 24.1916 36.51 24.0716 36.942 24.0716H39.2619V19.9677C39.2619 17.9916 37.6061 16.3836 35.566 16.3836ZM29.2541 46.3597H16.118C15.6779 46.3597 15.318 45.9996 15.318 45.5597V18.6876C15.318 18.2476 15.6779 17.8876 16.118 17.8876H17.398V16.3836H15.6459C13.6141 16.3836 11.958 17.9916 11.958 19.9677V46.4076C11.958 48.3836 13.6141 49.9916 15.6459 49.9916H33.342C31.758 49.1597 30.182 47.6876 29.2541 46.3597ZM32.2221 16.0236V18.3356C32.2221 19.1036 31.518 19.7276 30.6619 19.7276H20.558C19.702 19.7276 18.998 19.1036 18.998 18.3356V16.0236C18.998 15.2636 19.702 14.6315 20.558 14.6315H23.2859C23.2859 13.3996 24.326 12.3916 25.6061 12.3916C26.8859 12.3916 27.926 13.3996 27.926 14.6315H30.6619C31.518 14.6315 32.2221 15.2636 32.2221 16.0236Z" fill="white"/>
</g>
<defs>
<clipPath id="clip0_560_1647">
<rect width="40" height="40" fill="white" transform="translate(11.158 11.1914)"/>
</clipPath>
</defs>
</svg>
