<svg width="12" height="13" viewBox="0 0 12 13" fill="none" xmlns="http://www.w3.org/2000/svg">
<g clip-path="url(#clip0_99_1230)">
<rect width="12" height="12" transform="translate(0 0.5)" fill="white" fill-opacity="0.01"/>
<g opacity="0.6">
<path fill-rule="evenodd" clip-rule="evenodd" d="M8.51422 1.73371C8.54914 1.76854 8.57685 1.80992 8.59575 1.85548C8.61466 1.90104 8.62439 1.94988 8.62439 1.99921C8.62439 2.04853 8.61466 2.09737 8.59575 2.14293C8.57685 2.18849 8.54914 2.22987 8.51422 2.26471L4.27897 6.49921L8.51422 10.7337C8.58463 10.8041 8.62419 10.8996 8.62419 10.9992C8.62419 11.0988 8.58463 11.1943 8.51422 11.2647C8.4438 11.3351 8.3483 11.3747 8.24872 11.3747C8.14914 11.3747 8.05363 11.3351 7.98322 11.2647L3.48322 6.76471C3.44829 6.72987 3.42059 6.68849 3.40168 6.64293C3.38278 6.59737 3.37305 6.54853 3.37305 6.49921C3.37305 6.44988 3.38278 6.40104 3.40168 6.35548C3.42059 6.30992 3.44829 6.26854 3.48322 6.23371L7.98322 1.73371C8.01805 1.69878 8.05943 1.67108 8.10499 1.65217C8.15055 1.63327 8.19939 1.62354 8.24872 1.62354C8.29804 1.62354 8.34688 1.63327 8.39244 1.65217C8.438 1.67108 8.47938 1.69878 8.51422 1.73371Z" fill="white"/>
</g>
</g>
<defs>
<clipPath id="clip0_99_1230">
<rect width="12" height="12" fill="white" transform="translate(0 0.5)"/>
</clipPath>
</defs>
</svg>
