<svg width="320" height="102" viewBox="0 0 320 102" fill="none" xmlns="http://www.w3.org/2000/svg">
<path d="M0.666667 96.0682C0.666667 99.0137 3.05448 101.402 6 101.402C8.94552 101.402 11.3333 99.0137 11.3333 96.0682C11.3333 93.1227 8.94552 90.7348 6 90.7348C3.05448 90.7348 0.666667 93.1227 0.666667 96.0682ZM101.068 1V0H100.654L100.361 0.292893L101.068 1ZM6.70711 96.7753L10.6683 92.8141L9.25407 91.3999L5.29289 95.3611L6.70711 96.7753ZM18.5906 84.8918L26.513 76.9694L25.0988 75.5552L17.1764 83.4775L18.5906 84.8918ZM34.4353 69.0471L42.3577 61.1247L40.9435 59.7105L33.0211 67.6328L34.4353 69.0471ZM50.28 53.2024L58.2024 45.28L56.7881 43.8658L48.8658 51.7882L50.28 53.2024ZM66.1247 37.3577L74.047 29.4353L72.6328 28.0211L64.7105 35.9435L66.1247 37.3577ZM81.9694 21.513L89.8917 13.5906L88.4775 12.1764L80.5552 20.0988L81.9694 21.513ZM97.8141 5.66828L101.775 1.70711L100.361 0.292893L96.3999 4.25407L97.8141 5.66828ZM101.068 2H106.529V0H101.068V2ZM117.451 2H128.372V0H117.451V2ZM139.294 2H150.215V0H139.294V2ZM161.137 2H172.059V0H161.137V2ZM182.98 2H193.902V0H182.98V2ZM204.823 2H215.745V0H204.823V2ZM226.666 2H237.588V0H226.666V2ZM248.51 2H259.431V0H248.51V2ZM270.353 2H281.274V0H270.353V2ZM292.196 2H303.118V0H292.196V2ZM314.039 2H319.5V0H314.039V2Z" fill="white"/>
</svg>
