<svg width="333" height="102" viewBox="0 0 333 102" fill="none" xmlns="http://www.w3.org/2000/svg">
<path d="M0.666667 96.0682C0.666667 99.0137 3.05448 101.402 6 101.402C8.94552 101.402 11.3333 99.0137 11.3333 96.0682C11.3333 93.1227 8.94552 90.7348 6 90.7348C3.05448 90.7348 0.666667 93.1227 0.666667 96.0682ZM101.068 1V0H100.654L100.361 0.292893L101.068 1ZM6.70711 96.7753L10.6683 92.8141L9.25407 91.3999L5.29289 95.3611L6.70711 96.7753ZM18.5906 84.8918L26.513 76.9694L25.0988 75.5552L17.1764 83.4775L18.5906 84.8918ZM34.4353 69.0471L42.3577 61.1247L40.9435 59.7105L33.0211 67.6328L34.4353 69.0471ZM50.28 53.2024L58.2024 45.28L56.7881 43.8658L48.8658 51.7882L50.28 53.2024ZM66.1247 37.3577L74.047 29.4353L72.6328 28.0211L64.7105 35.9435L66.1247 37.3577ZM81.9694 21.513L89.8917 13.5906L88.4775 12.1764L80.5552 20.0988L81.9694 21.513ZM97.8141 5.66828L101.775 1.70711L100.361 0.292893L96.3999 4.25407L97.8141 5.66828ZM101.068 2H106.331V0H101.068V2ZM116.856 2H127.381V0H116.856V2ZM137.906 2H148.431V0H137.906V2ZM158.957 2H169.482V0H158.957V2ZM180.007 2H190.532V0H180.007V2ZM201.057 2H211.583V0H201.057V2ZM222.108 2H232.633V0H222.108V2ZM243.158 2H253.683V0H243.158V2ZM264.209 2H274.734V0H264.209V2ZM285.259 2H295.784V0H285.259V2ZM306.309 2H316.835V0H306.309V2ZM327.36 2H332.622V0H327.36V2Z" fill="white"/>
</svg>
