<svg width="63" height="63" viewBox="0 0 63 63" fill="none" xmlns="http://www.w3.org/2000/svg">
<circle cx="31.3111" cy="31.5284" r="30.2498" stroke="white" stroke-width="1.51608"/>
<path d="M36.4167 21.833C37.4112 21.833 38.3651 21.4379 39.0683 20.7347C39.7716 20.0314 40.1667 19.0776 40.1667 18.083C40.1667 17.0884 39.7716 16.1346 39.0683 15.4314C38.3651 14.7281 37.4112 14.333 36.4167 14.333C35.4221 14.333 34.4683 14.7281 33.765 15.4314C33.0618 16.1346 32.6667 17.0884 32.6667 18.083C32.6667 19.0776 33.0618 20.0314 33.765 20.7347C34.4683 21.4379 35.4221 21.833 36.4167 21.833V21.833ZM28.8833 25.4013C27.8442 25.6597 27.135 26.048 26.5625 26.5297C25.7042 27.253 25.0108 28.2963 24.0742 29.9363C23.8548 30.3201 23.492 30.6011 23.0655 30.7173C22.639 30.8336 22.1838 30.7757 21.8 30.5563C21.4162 30.337 21.1353 29.9742 21.019 29.5477C20.9027 29.1212 20.9607 28.666 21.18 28.2822C22.1125 26.6513 23.055 25.1255 24.4159 23.9805C25.8359 22.7838 27.5742 22.1072 29.9183 21.8463C30.8983 21.738 31.9767 21.7597 32.9875 22.2105C34.0483 22.6847 34.8233 23.5338 35.3517 24.6688C36.0633 26.1963 36.5925 27.1055 37.0158 27.6322C37.22 27.8855 37.3625 28.003 37.4433 28.0555C37.5075 28.0972 37.535 28.1005 37.545 28.1022H37.5458C37.6183 28.1105 37.8533 28.1022 38.5433 27.7963C38.8442 27.663 39.1725 27.503 39.5742 27.3072L39.67 27.2605C40.1612 27.0181 40.6569 26.7847 41.1567 26.5605C41.5602 26.3834 42.0174 26.3732 42.4284 26.5323C42.8393 26.6914 43.1705 27.0068 43.3496 27.4095C43.5286 27.8122 43.5409 28.2694 43.3837 28.6811C43.2265 29.0927 42.9127 29.4254 42.5108 29.6063C42.0477 29.8142 41.5885 30.0306 41.1333 30.2555L41.0242 30.3088C40.64 30.4963 40.2533 30.6855 39.8908 30.8455C39.1408 31.1772 38.1825 31.5372 37.1433 31.4113C36.0467 31.278 35.2017 30.6588 34.5058 29.828L32.2284 34.2222L35.3783 38.3205C35.5658 38.5655 35.6817 38.8572 35.7142 39.1638L36.4075 45.8272C36.4339 46.0467 36.4164 46.2693 36.3559 46.482C36.2955 46.6947 36.1933 46.8932 36.0553 47.066C35.9174 47.2389 35.7464 47.3825 35.5524 47.4886C35.3584 47.5947 35.1452 47.6611 34.9253 47.684C34.7054 47.7069 34.4831 47.6858 34.2714 47.6219C34.0597 47.558 33.8628 47.4527 33.6922 47.312C33.5217 47.1713 33.3808 46.998 33.2778 46.8024C33.1749 46.6067 33.1119 46.3924 33.0925 46.1722L32.4475 39.978L30.5342 37.488L30.5175 37.5188L30.4475 37.3755L26.9125 32.7755C26.7387 32.5494 26.6259 32.2825 26.5847 32.0003C26.5436 31.7182 26.5755 31.4301 26.6775 31.1638L28.8833 25.4013V25.4013Z" fill="white"/>
<path d="M26.36 35.1719L25.1334 38.4719L20.3 38.0885C20.0803 38.0681 19.8587 38.0916 19.648 38.1575C19.4374 38.2234 19.242 38.3305 19.0731 38.4726C18.9042 38.6146 18.7652 38.7888 18.6642 38.985C18.5631 39.1812 18.5021 39.3956 18.4845 39.6156C18.467 39.8356 18.4933 40.0568 18.562 40.2666C18.6306 40.4763 18.7402 40.6703 18.8845 40.8374C19.0287 41.0044 19.2047 41.1411 19.4022 41.2396C19.5997 41.3381 19.8148 41.3964 20.035 41.411L26.125 41.8944C26.4865 41.9231 26.8474 41.8332 27.1531 41.6383C27.4589 41.4435 27.6927 41.1542 27.8192 40.8144L28.7567 38.291L26.36 35.1719Z" fill="white"/>
</svg>
