<svg width="40" height="39" viewBox="0 0 40 39" fill="none" xmlns="http://www.w3.org/2000/svg">
<path d="M40 19.5C40 24.6717 37.8929 29.6316 34.1421 33.2886C30.3914 36.9455 25.3043 39 20 39C14.6957 39 9.60859 36.9455 5.85786 33.2886C2.10714 29.6316 0 24.6717 0 19.5C0 14.3283 2.10714 9.36838 5.85786 5.71142C9.60859 2.05446 14.6957 0 20 0C25.3043 0 30.3914 2.05446 34.1421 5.71142C37.8929 9.36838 40 14.3283 40 19.5ZM16.975 12.4142C16.7881 12.2844 16.5682 12.2073 16.3393 12.1914C16.1104 12.1754 15.8815 12.2211 15.6775 12.3236C15.4736 12.426 15.3024 12.5812 15.1829 12.7722C15.0634 12.9632 15.0001 13.1825 15 13.4062V25.5938C15.0001 25.8175 15.0634 26.0368 15.1829 26.2278C15.3024 26.4188 15.4736 26.574 15.6775 26.6764C15.8815 26.7789 16.1104 26.8246 16.3393 26.8086C16.5682 26.7927 16.7881 26.7156 16.975 26.5858L25.725 20.4921C25.887 20.3793 26.0191 20.2305 26.1102 20.0579C26.2014 19.8854 26.2489 19.6941 26.2489 19.5C26.2489 19.3059 26.2014 19.1146 26.1102 18.9421C26.0191 18.7695 25.887 18.6207 25.725 18.5079L16.975 12.4142Z" fill="white"/>
<path d="M40 19.5C40 24.6717 37.8929 29.6316 34.1421 33.2886C30.3914 36.9455 25.3043 39 20 39C14.6957 39 9.60859 36.9455 5.85786 33.2886C2.10714 29.6316 0 24.6717 0 19.5C0 14.3283 2.10714 9.36838 5.85786 5.71142C9.60859 2.05446 14.6957 0 20 0C25.3043 0 30.3914 2.05446 34.1421 5.71142C37.8929 9.36838 40 14.3283 40 19.5ZM16.975 12.4142C16.7881 12.2844 16.5682 12.2073 16.3393 12.1914C16.1104 12.1754 15.8815 12.2211 15.6775 12.3236C15.4736 12.426 15.3024 12.5812 15.1829 12.7722C15.0634 12.9632 15.0001 13.1825 15 13.4062V25.5938C15.0001 25.8175 15.0634 26.0368 15.1829 26.2278C15.3024 26.4188 15.4736 26.574 15.6775 26.6764C15.8815 26.7789 16.1104 26.8246 16.3393 26.8086C16.5682 26.7927 16.7881 26.7156 16.975 26.5858L25.725 20.4921C25.887 20.3793 26.0191 20.2305 26.1102 20.0579C26.2014 19.8854 26.2489 19.6941 26.2489 19.5C26.2489 19.3059 26.2014 19.1146 26.1102 18.9421C26.0191 18.7695 25.887 18.6207 25.725 18.5079L16.975 12.4142Z" fill="url(#paint0_linear_306_500)"/>
<defs>
<linearGradient id="paint0_linear_306_500" x1="31.282" y1="6.57717" x2="36.4848" y2="27.0852" gradientUnits="userSpaceOnUse">
<stop stop-color="#23A2E5"/>
<stop offset="1" stop-color="#4933B5"/>
</linearGradient>
</defs>
</svg>
