<svg width="333" height="102" viewBox="0 0 333 102" fill="none" xmlns="http://www.w3.org/2000/svg">
<path d="M0.109965 5.71075C0.109965 2.76524 2.49778 0.377419 5.4433 0.377419C8.38882 0.377419 10.7766 2.76524 10.7766 5.71075C10.7766 8.65627 8.38882 11.0441 5.4433 11.0441C2.49778 11.0441 0.109965 8.65627 0.109965 5.71075ZM100.511 100.779V101.779H100.097L99.8043 101.486L100.511 100.779ZM6.15041 5.00365L10.1116 8.96482L8.69736 10.379L4.73619 6.41786L6.15041 5.00365ZM18.0339 16.8872L25.9563 24.8095L24.5421 26.2237L16.6197 18.3014L18.0339 16.8872ZM33.8786 32.7319L41.801 40.6542L40.3867 42.0684L32.4644 34.1461L33.8786 32.7319ZM49.7233 48.5766L57.6457 56.4989L56.2314 57.9131L48.3091 49.9908L49.7233 48.5766ZM65.568 64.4213L73.4903 72.3436L72.0761 73.7578L64.1538 65.8355L65.568 64.4213ZM81.4127 80.266L89.335 88.1883L87.9208 89.6025L79.9985 81.6802L81.4127 80.266ZM97.2574 96.1106L101.219 100.072L99.8043 101.486L95.8432 97.5249L97.2574 96.1106ZM100.511 99.7789H105.774V101.779H100.511V99.7789ZM116.299 99.7789H126.824V101.779H116.299V99.7789ZM137.35 99.7789H147.875V101.779H137.35V99.7789ZM158.4 99.7789H168.925V101.779H158.4V99.7789ZM179.45 99.7789H189.976V101.779H179.45V99.7789ZM200.501 99.7789H211.026V101.779H200.501V99.7789ZM221.551 99.7789H232.076V101.779H221.551V99.7789ZM242.601 99.7789H253.127V101.779H242.601V99.7789ZM263.652 99.7789H274.177V101.779H263.652V99.7789ZM284.702 99.7789H295.227V101.779H284.702V99.7789ZM305.753 99.7789H316.278V101.779H305.753V99.7789ZM326.803 99.7789H332.066V101.779H326.803V99.7789Z" fill="white"/>
</svg>
