<svg width="63" height="63" viewBox="0 0 63 63" fill="none" xmlns="http://www.w3.org/2000/svg">
<circle cx="31.2816" cy="31.7647" r="30.2498" stroke="white" stroke-width="1.51608"/>
<path fill-rule="evenodd" clip-rule="evenodd" d="M41 25.3333C42.8409 25.3333 44.3333 23.8409 44.3333 22C44.3333 20.159 42.8409 18.6667 41 18.6667C39.1591 18.6667 37.6667 20.159 37.6667 22C37.6667 23.8409 39.1591 25.3333 41 25.3333ZM41 27C43.7614 27 46 24.7614 46 22C46 19.2386 43.7614 17 41 17C38.2386 17 36 19.2386 36 22C36 24.7614 38.2386 27 41 27ZM26.0801 24.5877C24.8533 23.3602 22.8637 23.3596 21.636 24.5862L21.0493 25.1724C19.9332 24.8552 18.6846 25.1391 17.8059 26.0238C16.5092 27.3293 16.5092 29.448 17.8059 30.7535L18.5 31.4523V40.3333H16V42H18.5H18.5421C18.0019 42.5294 17.6667 43.2673 17.6667 44.0833C17.6667 45.6942 18.9725 47 20.5833 47C22.1942 47 23.5 45.6942 23.5 44.0833C23.5 43.2673 23.1648 42.5294 22.6246 42H39.3754C38.8352 42.5294 38.5 43.2673 38.5 44.0833C38.5 45.6942 39.8058 47 41.4167 47C43.0275 47 44.3333 45.6942 44.3333 44.0833C44.3333 43.2673 43.9982 42.5294 43.4579 42H46V40.3333H42.6667V37.8331H42.7218C44.5323 37.8331 46 36.3532 46 34.5275C46 32.7019 44.5323 31.222 42.7218 31.222H27.7583C27.6904 31.222 27.6252 31.1947 27.5771 31.1463L27.2717 30.839L27.5788 30.5323C28.8065 29.3056 28.8072 27.3161 27.5803 26.0886L26.0801 24.5877ZM26.0972 29.6565L26.4007 29.3532C26.9772 28.7773 26.9776 27.8432 26.4015 27.2668L24.9013 25.7659C24.3252 25.1894 23.3906 25.1891 22.814 25.7652L22.5219 26.057L26.0972 29.6565ZM41 37.8331V40.3333H20.1667V33.1302L24.5627 37.556C24.7389 37.7334 24.9778 37.8331 25.2268 37.8331H41ZM41.8333 20.3333C41.8333 19.8731 41.4602 19.5 41 19.5C40.5397 19.5 40.1667 19.8731 40.1667 20.3333V22.2523L41.1399 23.7122C41.3953 24.0952 41.9127 24.1987 42.2956 23.9434C42.6785 23.6881 42.782 23.1707 42.5267 22.7877L41.8333 21.7477V20.3333Z" fill="white"/>
</svg>
