<svg width="72" height="72" viewBox="0 0 72 72" fill="none" xmlns="http://www.w3.org/2000/svg">
<circle cx="35.9883" cy="35.9883" r="35.1085" stroke="url(#paint0_linear_704_3053)" stroke-width="1.75959"/>
<path d="M41.914 24.7398C43.0683 24.7398 44.1754 24.2812 44.9916 23.465C45.8078 22.6488 46.2663 21.5418 46.2663 20.3875C46.2663 19.2332 45.8078 18.1261 44.9916 17.3099C44.1754 16.4937 43.0683 16.0352 41.914 16.0352C40.7597 16.0352 39.6527 16.4937 38.8365 17.3099C38.0203 18.1261 37.5617 19.2332 37.5617 20.3875C37.5617 21.5418 38.0203 22.6488 38.8365 23.465C39.6527 24.2812 40.7597 24.7398 41.914 24.7398V24.7398ZM33.1707 28.8813C31.9646 29.1811 31.1416 29.6318 30.4771 30.1908C29.4809 31.0303 28.6762 32.2413 27.5891 34.1447C27.3345 34.5901 26.9134 34.9162 26.4184 35.0511C25.9234 35.1861 25.3951 35.1188 24.9497 34.8643C24.5042 34.6097 24.1782 34.1886 24.0432 33.6936C23.9083 33.1986 23.9755 32.6702 24.2301 32.2248C25.3123 30.332 26.4062 28.5611 27.9856 27.2322C29.6337 25.8433 31.6513 25.058 34.3719 24.7553C35.5093 24.6295 36.7609 24.6547 37.9341 25.1779C39.1653 25.7283 40.0648 26.7138 40.678 28.0311C41.5039 29.804 42.1181 30.8592 42.6094 31.4704C42.8464 31.7644 43.0118 31.9008 43.1056 31.9617C43.1801 32.0101 43.212 32.014 43.2236 32.0159H43.2246C43.3087 32.0256 43.5814 32.0159 44.3823 31.6609C44.7314 31.5062 45.1125 31.3205 45.5787 31.0932L45.6899 31.039C46.26 30.7577 46.8353 30.4868 47.4154 30.2266C47.8837 30.021 48.4144 30.0093 48.8913 30.1939C49.3683 30.3786 49.7527 30.7446 49.9605 31.212C50.1682 31.6793 50.1825 32.2099 50.0001 32.6878C49.8176 33.1656 49.4534 33.5517 48.987 33.7617C48.4495 34.0029 47.9165 34.2541 47.3883 34.5151L47.2616 34.577C46.8157 34.7946 46.3669 35.0142 45.9462 35.1999C45.0757 35.5848 43.9635 36.0026 42.7574 35.8566C41.4846 35.7018 40.5039 34.9832 39.6963 34.0189L37.053 39.1189L40.7089 43.8755C40.9265 44.1598 41.061 44.4984 41.0987 44.8543L41.9034 52.5879C41.934 52.8427 41.9137 53.101 41.8435 53.3479C41.7733 53.5947 41.6548 53.8251 41.4946 54.0257C41.3345 54.2263 41.1361 54.393 40.911 54.5161C40.6858 54.6393 40.4384 54.7163 40.1831 54.7429C39.9278 54.7695 39.6699 54.745 39.4242 54.6709C39.1785 54.5967 38.95 54.4745 38.752 54.3112C38.554 54.1478 38.3905 53.9468 38.271 53.7197C38.1515 53.4926 38.0784 53.2439 38.0559 52.9883L37.3073 45.7992L35.0867 42.9093L35.0673 42.9451L34.9861 42.7787L30.8833 37.4399C30.6816 37.1774 30.5506 36.8677 30.5029 36.5402C30.4551 36.2127 30.4922 35.8784 30.6106 35.5693L33.1707 28.8813V28.8813Z" fill="white"/>
<path d="M41.914 24.7398C43.0683 24.7398 44.1754 24.2812 44.9916 23.465C45.8078 22.6488 46.2663 21.5418 46.2663 20.3875C46.2663 19.2332 45.8078 18.1261 44.9916 17.3099C44.1754 16.4937 43.0683 16.0352 41.914 16.0352C40.7597 16.0352 39.6527 16.4937 38.8365 17.3099C38.0203 18.1261 37.5617 19.2332 37.5617 20.3875C37.5617 21.5418 38.0203 22.6488 38.8365 23.465C39.6527 24.2812 40.7597 24.7398 41.914 24.7398V24.7398ZM33.1707 28.8813C31.9646 29.1811 31.1416 29.6318 30.4771 30.1908C29.4809 31.0303 28.6762 32.2413 27.5891 34.1447C27.3345 34.5901 26.9134 34.9162 26.4184 35.0511C25.9234 35.1861 25.3951 35.1188 24.9497 34.8643C24.5042 34.6097 24.1782 34.1886 24.0432 33.6936C23.9083 33.1986 23.9755 32.6702 24.2301 32.2248C25.3123 30.332 26.4062 28.5611 27.9856 27.2322C29.6337 25.8433 31.6513 25.058 34.3719 24.7553C35.5093 24.6295 36.7609 24.6547 37.9341 25.1779C39.1653 25.7283 40.0648 26.7138 40.678 28.0311C41.5039 29.804 42.1181 30.8592 42.6094 31.4704C42.8464 31.7644 43.0118 31.9008 43.1056 31.9617C43.1801 32.0101 43.212 32.014 43.2236 32.0159H43.2246C43.3087 32.0256 43.5814 32.0159 44.3823 31.6609C44.7314 31.5062 45.1125 31.3205 45.5787 31.0932L45.6899 31.039C46.26 30.7577 46.8353 30.4868 47.4154 30.2266C47.8837 30.021 48.4144 30.0093 48.8913 30.1939C49.3683 30.3786 49.7527 30.7446 49.9605 31.212C50.1682 31.6793 50.1825 32.2099 50.0001 32.6878C49.8176 33.1656 49.4534 33.5517 48.987 33.7617C48.4495 34.0029 47.9165 34.2541 47.3883 34.5151L47.2616 34.577C46.8157 34.7946 46.3669 35.0142 45.9462 35.1999C45.0757 35.5848 43.9635 36.0026 42.7574 35.8566C41.4846 35.7018 40.5039 34.9832 39.6963 34.0189L37.053 39.1189L40.7089 43.8755C40.9265 44.1598 41.061 44.4984 41.0987 44.8543L41.9034 52.5879C41.934 52.8427 41.9137 53.101 41.8435 53.3479C41.7733 53.5947 41.6548 53.8251 41.4946 54.0257C41.3345 54.2263 41.1361 54.393 40.911 54.5161C40.6858 54.6393 40.4384 54.7163 40.1831 54.7429C39.9278 54.7695 39.6699 54.745 39.4242 54.6709C39.1785 54.5967 38.95 54.4745 38.752 54.3112C38.554 54.1478 38.3905 53.9468 38.271 53.7197C38.1515 53.4926 38.0784 53.2439 38.0559 52.9883L37.3073 45.7992L35.0867 42.9093L35.0673 42.9451L34.9861 42.7787L30.8833 37.4399C30.6816 37.1774 30.5506 36.8677 30.5029 36.5402C30.4551 36.2127 30.4922 35.8784 30.6106 35.5693L33.1707 28.8813V28.8813Z" fill="url(#paint1_linear_704_3053)"/>
<path d="M30.2419 40.2227L28.8182 44.0527L23.2086 43.6078C22.9535 43.5841 22.6963 43.6113 22.4519 43.6878C22.2074 43.7643 21.9806 43.8886 21.7846 44.0535C21.5886 44.2184 21.4272 44.4206 21.31 44.6483C21.1927 44.876 21.1218 45.1247 21.1015 45.3801C21.0811 45.6354 21.1116 45.8922 21.1913 46.1357C21.271 46.3791 21.3983 46.6043 21.5657 46.7981C21.7331 46.992 21.9373 47.1507 22.1666 47.265C22.3958 47.3793 22.6454 47.4469 22.901 47.4639L29.9692 48.0249C30.3886 48.0583 30.8076 47.954 31.1624 47.7278C31.5173 47.5016 31.7886 47.1658 31.9354 46.7714L33.0235 43.8428L30.2419 40.2227Z" fill="white"/>
<path d="M30.2419 40.2227L28.8182 44.0527L23.2086 43.6078C22.9535 43.5841 22.6963 43.6113 22.4519 43.6878C22.2074 43.7643 21.9806 43.8886 21.7846 44.0535C21.5886 44.2184 21.4272 44.4206 21.31 44.6483C21.1927 44.876 21.1218 45.1247 21.1015 45.3801C21.0811 45.6354 21.1116 45.8922 21.1913 46.1357C21.271 46.3791 21.3983 46.6043 21.5657 46.7981C21.7331 46.992 21.9373 47.1507 22.1666 47.265C22.3958 47.3793 22.6454 47.4469 22.901 47.4639L29.9692 48.0249C30.3886 48.0583 30.8076 47.954 31.1624 47.7278C31.5173 47.5016 31.7886 47.1658 31.9354 46.7714L33.0235 43.8428L30.2419 40.2227Z" fill="url(#paint2_linear_704_3053)"/>
<defs>
<linearGradient id="paint0_linear_704_3053" x1="17.1334" y1="7.5004" x2="61.1634" y2="15.7367" gradientUnits="userSpaceOnUse">
<stop stop-color="#F7931D"/>
<stop offset="1" stop-color="#EC1B25"/>
</linearGradient>
<linearGradient id="paint1_linear_704_3053" x1="30.2004" y1="20.0698" x2="46.498" y2="22.129" gradientUnits="userSpaceOnUse">
<stop stop-color="#F7931D"/>
<stop offset="1" stop-color="#EC1B25"/>
</linearGradient>
<linearGradient id="paint2_linear_704_3053" x1="23.9347" y1="41.0363" x2="30.9167" y2="43.0315" gradientUnits="userSpaceOnUse">
<stop stop-color="#F7931D"/>
<stop offset="1" stop-color="#EC1B25"/>
</linearGradient>
</defs>
</svg>
