<svg width="38" height="39" viewBox="0 0 38 39" fill="none" xmlns="http://www.w3.org/2000/svg">
<rect y="0.234375" width="38" height="38" rx="4" fill="#212529"/>
<g clip-path="url(#clip0_251_44)">
<path d="M11.5 12.2344C11.3674 12.2344 11.2402 12.2871 11.1464 12.3808C11.0527 12.4746 11 12.6018 11 12.7344C11 12.867 11.0527 12.9942 11.1464 13.0879C11.2402 13.1817 11.3674 13.2344 11.5 13.2344H12.61L13.011 14.8414L14.509 22.8264C14.5304 22.941 14.5913 23.0444 14.6809 23.1189C14.7706 23.1934 14.8834 23.2343 15 23.2344H16C15.4696 23.2344 14.9609 23.4451 14.5858 23.8202C14.2107 24.1952 14 24.7039 14 25.2344C14 25.7648 14.2107 26.2735 14.5858 26.6486C14.9609 27.0237 15.4696 27.2344 16 27.2344C16.5304 27.2344 17.0391 27.0237 17.4142 26.6486C17.7893 26.2735 18 25.7648 18 25.2344C18 24.7039 17.7893 24.1952 17.4142 23.8202C17.0391 23.4451 16.5304 23.2344 16 23.2344H23C22.4696 23.2344 21.9609 23.4451 21.5858 23.8202C21.2107 24.1952 21 24.7039 21 25.2344C21 25.7648 21.2107 26.2735 21.5858 26.6486C21.9609 27.0237 22.4696 27.2344 23 27.2344C23.5304 27.2344 24.0391 27.0237 24.4142 26.6486C24.7893 26.2735 25 25.7648 25 25.2344C25 24.7039 24.7893 24.1952 24.4142 23.8202C24.0391 23.4451 23.5304 23.2344 23 23.2344H24C24.1166 23.2343 24.2294 23.1934 24.3191 23.1189C24.4087 23.0444 24.4696 22.941 24.491 22.8264L25.991 14.8264C26.0045 14.7542 26.002 14.68 25.9835 14.6089C25.9651 14.5378 25.9313 14.4717 25.8844 14.4152C25.8375 14.3587 25.7788 14.3132 25.7124 14.2819C25.6459 14.2507 25.5734 14.2344 25.5 14.2344H13.89L13.485 12.6134C13.458 12.5052 13.3956 12.4091 13.3077 12.3404C13.2199 12.2717 13.1115 12.2344 13 12.2344H11.5ZM17 25.2344C17 25.4996 16.8946 25.7539 16.7071 25.9415C16.5196 26.129 16.2652 26.2344 16 26.2344C15.7348 26.2344 15.4804 26.129 15.2929 25.9415C15.1054 25.7539 15 25.4996 15 25.2344C15 24.9692 15.1054 24.7148 15.2929 24.5273C15.4804 24.3397 15.7348 24.2344 16 24.2344C16.2652 24.2344 16.5196 24.3397 16.7071 24.5273C16.8946 24.7148 17 24.9692 17 25.2344ZM24 25.2344C24 25.4996 23.8946 25.7539 23.7071 25.9415C23.5196 26.129 23.2652 26.2344 23 26.2344C22.7348 26.2344 22.4804 26.129 22.2929 25.9415C22.1054 25.7539 22 25.4996 22 25.2344C22 24.9692 22.1054 24.7148 22.2929 24.5273C22.4804 24.3397 22.7348 24.2344 23 24.2344C23.2652 24.2344 23.5196 24.3397 23.7071 24.5273C23.8946 24.7148 24 24.9692 24 25.2344ZM22.354 17.5884L19.354 20.5884C19.3076 20.6349 19.2524 20.6719 19.1916 20.6971C19.1309 20.7223 19.0658 20.7353 19 20.7353C18.9342 20.7353 18.8691 20.7223 18.8084 20.6971C18.7476 20.6719 18.6924 20.6349 18.646 20.5884L17.146 19.0884C17.0995 19.0419 17.0626 18.9867 17.0375 18.926C17.0123 18.8652 16.9994 18.8001 16.9994 18.7344C16.9994 18.6686 17.0123 18.6035 17.0375 18.5428C17.0626 18.4821 17.0995 18.4269 17.146 18.3804C17.1925 18.3339 17.2477 18.297 17.3084 18.2719C17.3692 18.2467 17.4343 18.2337 17.5 18.2337C17.5657 18.2337 17.6308 18.2467 17.6916 18.2719C17.7523 18.297 17.8075 18.3339 17.854 18.3804L19 19.5274L21.646 16.8804C21.6925 16.8339 21.7477 16.797 21.8084 16.7719C21.8692 16.7467 21.9343 16.7337 22 16.7337C22.0657 16.7337 22.1308 16.7467 22.1916 16.7719C22.2523 16.797 22.3075 16.8339 22.354 16.8804C22.4005 16.9269 22.4374 16.9821 22.4625 17.0428C22.4877 17.1035 22.5006 17.1686 22.5006 17.2344C22.5006 17.3001 22.4877 17.3652 22.4625 17.426C22.4374 17.4867 22.4005 17.5419 22.354 17.5884Z" fill="white"/>
</g>
<defs>
<clipPath id="clip0_251_44">
<rect width="16" height="16" fill="white" transform="translate(11 11.2344)"/>
</clipPath>
</defs>
</svg>
