<svg width="333" height="102" viewBox="0 0 333 102" fill="none" xmlns="http://www.w3.org/2000/svg">
<path d="M95.8449 5.47729V4.47729H95.4307L95.1378 4.77019L95.8449 5.47729ZM322.066 5.47729C322.066 8.42281 324.453 10.8106 327.399 10.8106C330.345 10.8106 332.732 8.42281 332.732 5.47729C332.732 2.53178 330.345 0.143961 327.399 0.143961C324.453 0.143961 322.066 2.53178 322.066 5.47729ZM1.48384 101.253L5.44501 97.2914L4.0308 95.8772L0.0696265 99.8384L1.48384 101.253ZM13.3674 89.3691L21.2897 81.4467L19.8755 80.0325L11.9531 87.9548L13.3674 89.3691ZM29.2121 73.5244L37.1344 65.602L35.7202 64.1878L27.7978 72.1101L29.2121 73.5244ZM45.0567 57.6797L52.9791 49.7573L51.5649 48.3431L43.6425 56.2654L45.0567 57.6797ZM60.9014 41.835L68.8238 33.9126L67.4096 32.4984L59.4872 40.4208L60.9014 41.835ZM76.7461 25.9903L84.6685 18.0679L83.2543 16.6537L75.3319 24.5761L76.7461 25.9903ZM92.5908 10.1456L96.552 6.1844L95.1378 4.77019L91.1766 8.73136L92.5908 10.1456ZM95.8449 6.47729H101.107V4.47729H95.8449V6.47729ZM111.633 6.47729H122.158V4.47729H111.633V6.47729ZM132.683 6.47729H143.208V4.47729H132.683V6.47729ZM153.733 6.47729H164.259V4.47729H153.733V6.47729ZM174.784 6.47729H185.309V4.47729H174.784V6.47729ZM195.834 6.47729H206.359V4.47729H195.834V6.47729ZM216.885 6.47729H227.41V4.47729H216.885V6.47729ZM237.935 6.47729H248.46V4.47729H237.935V6.47729ZM258.985 6.47729H269.51V4.47729H258.985V6.47729ZM280.036 6.47729H290.561V4.47729H280.036V6.47729ZM301.086 6.47729H311.611V4.47729H301.086V6.47729ZM322.136 6.47729H327.399V4.47729H322.136V6.47729Z" fill="white"/>
</svg>
