<svg width="63" height="63" viewBox="0 0 63 63" fill="none" xmlns="http://www.w3.org/2000/svg">
<circle cx="31.7689" cy="31.6075" r="30.2498" stroke="white" stroke-width="1.51608"/>
<g clip-path="url(#clip0_560_1624)">
<path d="M33.311 24.6533C36.4176 24.6533 38.936 22.1349 38.936 19.0283C38.936 15.9217 36.4176 13.4033 33.311 13.4033C30.2044 13.4033 27.686 15.9217 27.686 19.0283C27.686 22.1349 30.2044 24.6533 33.311 24.6533Z" fill="white"/>
<path d="M49.561 33.4033H46.711L41.7673 27.9596C41.3566 27.5093 40.8566 27.1495 40.2992 26.9031C39.7418 26.6567 39.1392 26.529 38.5298 26.5283H28.0923C27.4828 26.529 26.8802 26.6567 26.3228 26.9031C25.7654 27.1495 25.2655 27.5093 24.8548 27.9596L19.911 33.4033H17.061C16.5638 33.4033 16.0868 33.6009 15.7352 33.9525C15.3836 34.3041 15.186 34.781 15.186 35.2783C15.186 35.7756 15.3836 36.2525 15.7352 36.6041C16.0868 36.9558 16.5638 37.1533 17.061 37.1533H22.061C22.207 37.1533 22.3485 37.1025 22.461 37.0096L26.336 33.7783L26.8173 39.7596L19.4673 39.1721C18.7751 39.1155 18.0861 39.3146 17.5308 39.7317C16.9755 40.1488 16.5923 40.7549 16.4537 41.4355C16.3151 42.116 16.4308 42.8238 16.7788 43.4248C17.1268 44.0258 17.6831 44.4785 18.3423 44.6971L26.4985 47.4158L31.9173 49.2221C32.3909 49.3791 32.9052 49.3608 33.3664 49.1703C33.8276 48.9799 34.205 48.63 34.4298 48.1846C34.4993 48.0477 34.5517 47.9029 34.586 47.7533C34.7059 47.2758 34.6516 46.7712 34.4328 46.3301C34.214 45.889 33.8451 45.5405 33.3923 45.3471L27.4173 42.7846L27.9048 41.6346L33.7798 44.1533L33.7735 44.1283L39.9985 42.1846L40.3735 43.3721L35.0423 45.0408C35.3284 45.3511 35.5513 45.7141 35.6985 46.1096C35.8525 46.5356 35.9185 46.9885 35.8923 47.4408L48.0923 44.5408C48.7607 44.3803 49.344 43.9738 49.726 43.4024C50.1081 42.8309 50.2606 42.1365 50.1534 41.4575C50.0462 40.7785 49.6869 40.1649 49.1474 39.739C48.6078 39.3131 47.9276 39.1062 47.2423 39.1596L39.8048 39.7596L40.286 33.7783L44.161 37.0096C44.2736 37.1025 44.415 37.1533 44.561 37.1533H49.561C50.0583 37.1533 50.5352 36.9558 50.8869 36.6041C51.2385 36.2525 51.436 35.7756 51.436 35.2783C51.436 34.781 51.2385 34.3041 50.8869 33.9525C50.5352 33.6009 50.0583 33.4033 49.561 33.4033Z" fill="white"/>
</g>
<defs>
<clipPath id="clip0_560_1624">
<rect width="40" height="40" fill="white" transform="translate(11.7688 11.6074)"/>
</clipPath>
</defs>
</svg>
