<svg width="247" height="102" viewBox="0 0 247 102" fill="none" xmlns="http://www.w3.org/2000/svg">
<path d="M95.8449 5.47729V4.47729H95.4307L95.1378 4.77019L95.8449 5.47729ZM235.667 5.47729C235.667 8.42281 238.054 10.8106 241 10.8106C243.946 10.8106 246.333 8.42281 246.333 5.47729C246.333 2.53178 243.946 0.143962 241 0.143962C238.054 0.143962 235.667 2.53178 235.667 5.47729ZM1.48384 101.253L5.44501 97.2914L4.0308 95.8772L0.0696265 99.8384L1.48384 101.253ZM13.3674 89.3691L21.2897 81.4467L19.8755 80.0325L11.9531 87.9548L13.3674 89.3691ZM29.2121 73.5244L37.1344 65.602L35.7202 64.1878L27.7978 72.1101L29.2121 73.5244ZM45.0567 57.6797L52.9791 49.7573L51.5649 48.3431L43.6425 56.2654L45.0567 57.6797ZM60.9014 41.835L68.8238 33.9126L67.4096 32.4984L59.4872 40.4208L60.9014 41.835ZM76.7461 25.9903L84.6685 18.0679L83.2543 16.6537L75.3319 24.5761L76.7461 25.9903ZM92.5908 10.1456L96.552 6.1844L95.1378 4.77019L91.1766 8.73136L92.5908 10.1456ZM95.8449 6.47729H101.029V4.47729H95.8449V6.47729ZM111.397 6.47729H121.765V4.47729H111.397V6.47729ZM132.134 6.47729H142.502V4.47729H132.134V6.47729ZM152.87 6.47729H163.238V4.47729H152.87V6.47729ZM173.607 6.47729H183.975V4.47729H173.607V6.47729ZM194.343 6.47729H204.711V4.47729H194.343V6.47729ZM215.079 6.47729H225.448V4.47729H215.079V6.47729ZM235.816 6.47729H241V4.47729H235.816V6.47729Z" fill="white"/>
</svg>
