<svg width="113" height="19" viewBox="0 0 113 19" fill="none" xmlns="http://www.w3.org/2000/svg">
<path d="M4.27856 18.2271C3.82116 18.4617 3.30214 18.0505 3.39456 17.5256L4.3781 11.9206L0.203406 7.9438C-0.186453 7.57171 0.0161791 6.89153 0.538756 6.81806L6.3428 5.99332L8.9308 0.865895C9.16425 0.403751 9.79584 0.403751 10.0293 0.865895L12.6173 5.99332L18.4213 6.81806C18.9439 6.89153 19.1465 7.57171 18.7555 7.9438L14.582 11.9206L15.5655 17.5256C15.658 18.0505 15.1389 18.4617 14.6815 18.2271L9.47827 15.5538L4.27738 18.2271H4.27856Z" fill="#E38301"/>
<path d="M27.7883 18.2271C27.3309 18.4617 26.8119 18.0505 26.9043 17.5256L27.8879 11.9206L23.7132 7.9438C23.3233 7.57171 23.5259 6.89153 24.0485 6.81806L29.8526 5.99332L32.4406 0.865895C32.674 0.403751 33.3056 0.403751 33.539 0.865895L36.1271 5.99332L41.9311 6.81806C42.4537 6.89153 42.6563 7.57171 42.2653 7.9438L38.0918 11.9206L39.0753 17.5256C39.1677 18.0505 38.6487 18.4617 38.1913 18.2271L32.988 15.5538L27.7871 18.2271H27.7883Z" fill="#E38301"/>
<path d="M51.2991 18.2271C50.8417 18.4617 50.3226 18.0505 50.4151 17.5256L51.3986 11.9206L47.2239 7.9438C46.8341 7.57171 47.0367 6.89153 47.5593 6.81806L53.3633 5.99332L55.9513 0.865895C56.1848 0.403751 56.8163 0.403751 57.0498 0.865895L59.6378 5.99332L65.4418 6.81806C65.9644 6.89153 66.167 7.57171 65.776 7.9438L61.6025 11.9206L62.586 17.5256C62.6785 18.0505 62.1594 18.4617 61.702 18.2271L56.4988 15.5538L51.2979 18.2271H51.2991Z" fill="#E38301"/>
<path d="M74.8087 18.2271C74.3513 18.4617 73.8323 18.0505 73.9247 17.5256L74.9083 11.9206L70.7336 7.9438C70.3437 7.57171 70.5464 6.89153 71.0689 6.81806L76.873 5.99332L79.461 0.865895C79.6944 0.403751 80.326 0.403751 80.5595 0.865895L83.1475 5.99332L88.9515 6.81806C89.4741 6.89153 89.6767 7.57171 89.2857 7.9438L85.1122 11.9206L86.0957 17.5256C86.1881 18.0505 85.6691 18.4617 85.2117 18.2271L80.0084 15.5538L74.8076 18.2271H74.8087Z" fill="#E38301"/>
<path d="M98.3188 18.2271C97.8614 18.4617 97.3424 18.0505 97.4348 17.5256L98.4183 11.9206L94.2436 7.9438C93.8538 7.57171 94.0564 6.89153 94.579 6.81806L100.383 5.99332L102.971 0.865895C103.204 0.403751 103.836 0.403751 104.07 0.865895L106.658 5.99332L112.462 6.81806C112.984 6.89153 113.187 7.57171 112.796 7.9438L108.622 11.9206L109.606 17.5256C109.698 18.0505 109.179 18.4617 108.722 18.2271L103.518 15.5538L98.3176 18.2271H98.3188Z" fill="#E38301"/>
</svg>
