<svg width="26" height="26" viewBox="0 0 26 26" fill="none" xmlns="http://www.w3.org/2000/svg">
<g clip-path="url(#clip0_306_364)">
<path d="M19.5477 18.5571C19.5477 17.5056 18.4091 16.8448 17.5031 17.3706C16.5971 17.8963 16.5971 19.2179 17.5031 19.7437C18.4091 20.2694 19.5477 19.6087 19.5477 18.5571ZM22.7802 15.9667C23.6822 11.6551 21.5867 10.2357 18.2132 13.3567C15.0381 10.38 12.6645 11.3828 13.6267 15.947C9.18991 17.2845 9.48262 19.9343 13.6616 21.2204C12.7054 25.4238 14.6041 27.0201 18.2121 23.845C21.712 26.984 23.6825 25.4492 22.7271 21.2001C27.2852 19.6546 26.8754 17.2897 22.7802 15.9667V15.9667ZM21.9834 15.7545C21.2684 15.5931 20.7021 15.4987 19.9984 15.4347C19.6276 14.8925 19.2789 14.4452 18.7826 13.9413C21.4279 11.3609 22.7111 12.4218 21.9834 15.7545ZM15.083 19.625C15.3506 20.1963 15.509 20.3646 15.7735 20.8035C15.3426 20.7595 15.1919 20.7343 14.6978 20.6468C14.8561 20.2036 14.9047 20.0718 15.083 19.625ZM15.0487 17.6104C14.8519 17.1379 14.7883 16.9791 14.6416 16.5545C15.1517 16.4488 15.3387 16.3949 15.7721 16.3621C15.4495 16.8688 15.3399 17.0592 15.0487 17.6104ZM15.5244 18.6287C15.9655 17.7452 16.3768 17.0005 16.8942 16.2511C17.8122 16.1983 18.6159 16.2023 19.5137 16.2685C20.0172 16.9701 20.432 17.7164 20.8837 18.6297C20.5457 19.3281 20.1179 20.0402 19.5648 20.9001C18.6413 20.9701 17.8036 20.9597 16.8418 20.8995C16.3543 20.1526 15.9501 19.4585 15.5244 18.6287H15.5244ZM21.3215 19.6126C21.4967 20.0377 21.5442 20.1731 21.6943 20.6137C21.2313 20.7112 21.0905 20.736 20.6392 20.7839C20.9481 20.3053 21.0394 20.1412 21.3215 19.6126ZM20.6417 16.3725C21.1335 16.4398 21.2909 16.4705 21.749 16.5716C21.5958 17.0271 21.541 17.1777 21.3452 17.6121C21.066 17.0614 20.9646 16.8792 20.6416 16.3724L20.6417 16.3725ZM18.8614 15.351C18.2995 15.329 18.1276 15.33 17.5473 15.3514C17.8014 15.0172 17.8867 14.9162 18.1973 14.5531C18.5001 14.8799 18.5849 14.9831 18.8613 15.3511L18.8614 15.351ZM17.6248 13.9413C17.1285 14.4451 16.7798 14.8745 16.4091 15.4166C15.7053 15.4807 15.1223 15.5749 14.4072 15.7362C13.6894 12.3444 14.8745 11.4181 17.6248 13.9413ZM13.8743 20.4398C10.504 19.4086 10.2973 17.7859 13.8392 16.7456C14.0559 17.4031 14.2747 17.9532 14.5714 18.5944C14.2831 19.2575 14.0703 19.8176 13.8743 20.4398ZM14.4762 21.4329C15.1136 21.5892 15.6658 21.6398 16.3734 21.7151C16.7992 22.3159 17.157 22.7804 17.6253 23.2626C15.223 25.6191 13.5422 25.062 14.4762 21.4329ZM18.1947 22.6751C17.8683 22.3371 17.7521 22.1936 17.4631 21.7779C18.1073 21.7915 18.35 21.7937 18.9418 21.7786C18.6551 22.1852 18.5331 22.3237 18.1947 22.6751ZM18.7806 23.2608C19.2831 22.7148 19.644 22.2587 20.0334 21.6984C20.6982 21.6495 21.2475 21.5696 21.9298 21.4139C22.7667 24.8092 21.3673 25.7276 18.7806 23.2608ZM22.5153 20.4031C22.322 19.7809 22.1201 19.2575 21.8357 18.5944C22.1283 17.9532 22.3367 17.422 22.5503 16.7645C25.5753 17.6645 26.2857 19.2425 22.5153 20.4031ZM9.64903 19.5368H4.49795L8.76627 12.4175H12.5105C12.3043 13.2231 12.3003 13.7633 12.5186 15.0076C10.3394 15.7861 8.99563 17.0642 9.64903 19.5368ZM15.421 3.2367H14.109V9.56581L14.8134 10.6703C14.33 10.7158 13.8891 10.8902 13.5242 11.1786L12.7019 9.92056V3.2367H8.58301V9.92056L1.94287 20.9309H9.46818V22.3195H1.61982C0.293998 22.3195 -0.0978915 21.6556 0.526425 20.5931L7.17592 9.56576V3.2367H5.86383C4.8824 3.2367 4.8824 1.84813 5.86383 1.84813H15.421C16.4025 1.84813 16.4025 3.2367 15.421 3.2367Z" fill="white"/>
</g>
<defs>
<clipPath id="clip0_306_364">
<rect width="25.7637" height="25.7637" fill="white" transform="translate(0.236328 0.118164)"/>
</clipPath>
</defs>
</svg>
