<svg width="25" height="24" viewBox="0 0 25 24" fill="none" xmlns="http://www.w3.org/2000/svg">
<path d="M11.5 21C10.25 21 9.07933 20.7667 7.988 20.3C6.896 19.8333 5.94167 19.1917 5.125 18.375C4.30833 17.5583 3.66667 16.604 3.2 15.512C2.73333 14.4207 2.5 13.25 2.5 12C2.5 10.75 2.73333 9.579 3.2 8.487C3.66667 7.39567 4.30833 6.44167 5.125 5.625C5.94167 4.80833 6.896 4.16667 7.988 3.7C9.07933 3.23333 10.25 3 11.5 3C11.85 3 12.1873 3.02067 12.512 3.062C12.8373 3.104 13.1667 3.16667 13.5 3.25V5.3C13.1667 5.2 12.8373 5.125 12.512 5.075C12.1873 5.025 11.85 5 11.5 5C9.53333 5 7.875 5.675 6.525 7.025C5.175 8.375 4.5 10.0333 4.5 12C4.5 13.9667 5.175 15.625 6.525 16.975C7.875 18.325 9.53333 19 11.5 19C13.4667 19 15.125 18.325 16.475 16.975C17.825 15.625 18.5 13.9667 18.5 12C18.5 11.8167 18.4917 11.65 18.475 11.5C18.4583 11.35 18.4333 11.1833 18.4 11H20.45C20.4833 11.1833 20.5 11.35 20.5 11.5V12C20.5 13.25 20.2667 14.4207 19.8 15.512C19.3333 16.604 18.6917 17.5583 17.875 18.375C17.0583 19.1917 16.1043 19.8333 15.013 20.3C13.921 20.7667 12.75 21 11.5 21ZM14.3 16.2L10.5 12.4V7H12.5V11.6L15.7 14.8L14.3 16.2ZM18.5 9V6H15.5V4H18.5V1H20.5V4H23.5V6H20.5V9H18.5Z" fill="white"/>
</svg>
